<?xml version="1.0" encoding="UTF-8"?>
<svg version="1.1" xmlns="http://www.w3.org/2000/svg" width="500" height="500">
<path d="M0 0 C165 0 330 0 500 0 C500 165 500 330 500 500 C335 500 170 500 0 500 C0 335 0 170 0 0 Z " fill="#F6F7F6" transform="translate(0,0)"/>
<path d="M0 0 C6.88807309 5.4277499 13.5554091 11.01981395 20.03271484 16.93164062 C22.12203955 18.8073509 24.22565421 20.64857957 26.36083984 22.47070312 C33.07530784 28.20275572 39.56668693 34.02009785 45.74609375 40.32836914 C49.01838402 43.66373836 52.40967951 46.76433278 55.95849609 49.79882812 C61.36644949 54.54921067 66.25477708 59.78328942 70.88818359 65.28320312 C72.5873801 67.17463196 74.34371053 68.92618675 76.16552734 70.69726562 C79.75985152 74.26784608 82.77941636 78.0973169 85.75927734 82.18554688 C86.27796387 82.89018066 86.79665039 83.59481445 87.33105469 84.32080078 C88.3634475 85.724355 89.39379059 87.12941969 90.421875 88.53613281 C91.60060995 90.13546275 92.80766048 91.71386781 94.02099609 93.28710938 C112.98892543 118.14163747 124.01055866 148.22463115 124.00708008 179.42407227 C124.00925494 181.60062576 124.02742669 183.77666154 124.04638672 185.953125 C124.09640648 197.91405789 122.91246235 209.31266273 119.19677734 220.74804688 C118.8076416 221.95098389 118.8076416 221.95098389 118.41064453 223.17822266 C111.76092647 242.95937573 99.23226073 263.54519263 80.82177734 274.43554688 C79.83177734 274.43554688 78.84177734 274.43554688 77.82177734 274.43554688 C77.59103516 273.47068359 77.36029297 272.50582031 77.12255859 271.51171875 C63.65907898 215.44588031 46.19601343 171.98786014 -4.17822266 140.43554688 C-4.83467773 140.02288574 -5.49113281 139.61022461 -6.16748047 139.18505859 C-16.33033769 132.88027114 -27.21831796 128.15846579 -38.17822266 123.43554688 C-39.23517334 122.97365967 -39.23517334 122.97365967 -40.31347656 122.50244141 C-48.31342321 119.01668093 -56.38470859 116.00218996 -64.66772461 113.25195312 C-91.58562111 104.27608571 -112.85579349 92.30048485 -126.86572266 66.74804688 C-133.99702758 51.77230654 -134.48252086 33.04993119 -129.17822266 17.43554688 C-128.91138672 16.60023438 -128.64455078 15.76492187 -128.36962891 14.90429688 C-125.83604375 7.78773769 -121.8684135 1.34396911 -117.17822266 -4.56445312 C-116.51822266 -4.56445312 -115.85822266 -4.56445312 -115.17822266 -4.56445312 C-114.86884766 -5.40169922 -114.86884766 -5.40169922 -114.55322266 -6.25585938 C-112.67633728 -9.40710727 -110.06668681 -11.3339554 -107.17822266 -13.50195312 C-106.59588867 -13.94289307 -106.01355469 -14.38383301 -105.41357422 -14.83813477 C-70.59602758 -40.62696692 -30.27212165 -23.68128721 0 0 Z " fill="#42CC64" transform="translate(199.17822265625,170.564453125)"/>
<path d="M0 0 C14.17677852 11.19117978 24.34321542 25.80882668 27.0625 43.89453125 C27.97449071 58.39329661 27.63016683 72.06331556 23.0625 85.89453125 C22.80855469 86.87292969 22.55460938 87.85132813 22.29296875 88.859375 C16.17647968 110.82450076 -0.46827016 128.91758866 -15.9375 144.89453125 C-16.66598145 145.64790771 -16.66598145 145.64790771 -17.40917969 146.41650391 C-22.69350484 151.85402531 -28.1437736 157.00639619 -33.9375 161.89453125 C-34.90042969 162.72339844 -35.86335938 163.55226563 -36.85546875 164.40625 C-41.95563681 168.76347391 -46.90130598 172.87643424 -52.9375 175.89453125 C-54.7442767 174.08775455 -54.2833872 171.54444481 -54.48095703 169.11962891 C-56.10211549 149.6925551 -61.38294877 131.80824593 -68.9375 113.89453125 C-69.38480469 112.82332031 -69.83210938 111.75210938 -70.29296875 110.6484375 C-82.92302265 83.25093595 -106.40695345 53.92659096 -129.9375 34.89453125 C-129.76370891 31.03636916 -129.01256402 29.96437525 -126.12890625 27.28125 C-124.92931911 26.36815644 -123.71898871 25.46905756 -122.5 24.58203125 C-121.20916979 23.60999303 -119.91880712 22.63733363 -118.62890625 21.6640625 C-117.99484863 21.19178223 -117.36079102 20.71950195 -116.70751953 20.23291016 C-114.39157134 18.48173388 -112.16805923 16.62770998 -109.9375 14.76953125 C-79.72130382 -9.30516164 -34.46568558 -24.70346346 0 0 Z " fill="#029DA0" transform="translate(396.9375,173.10546875)"/>
<path d="M0 0 C3.54454852 2.80653402 6.80163893 5.80711557 10 9 C10.6496875 9.63808594 11.299375 10.27617188 11.96875 10.93359375 C22.99318478 22.56243833 26.4995532 37.04802307 26.34936523 52.59033203 C25.88890714 69.21989315 19.55736616 83.64797232 7.8125 95.37890625 C-6.06852439 108.31524982 -21.16288226 112.54268483 -39.68359375 112.2734375 C-54.9076282 111.73192404 -67.7045535 103.97296487 -78.52734375 93.6640625 C-90.59028173 80.66734259 -95.55686623 64.20909833 -95.2421875 46.796875 C-94.14002923 29.51787765 -86.48540644 15.55929113 -74 4 C-70.79572382 1.41263906 -67.52135429 -0.86832303 -64 -3 C-63.071875 -3.5775 -62.14375 -4.155 -61.1875 -4.75 C-41.75600575 -12.37019382 -17.54327136 -11.83270502 0 0 Z " fill="#34C661" transform="translate(283,38)"/>
<path d="M0 0 C14.63610869 1.82951359 29.07611582 15.84424451 40 25 C41.26070312 25.96486328 41.26070312 25.96486328 42.546875 26.94921875 C47.03155342 30.69835278 50.39981187 35.4221998 54 40 C54.78246094 40.96679688 55.56492187 41.93359375 56.37109375 42.9296875 C69.73409052 59.92074916 73.02555142 77.08703518 71.82421875 98.0703125 C70.18118298 111.65010215 59.47583897 123.9895805 49.125 132.3125 C36.58788039 141.12844267 22.93613408 143.2931861 8 142 C-6.99803983 139.33545463 -18.96117478 130.35765847 -28.00390625 118.3359375 C-38.9836448 101.87818684 -42.89160006 83.0380873 -39.27734375 63.53515625 C-37.53358424 55.59807605 -34.73416825 48.21423629 -31 41 C-30.60554687 40.16855469 -30.21109375 39.33710938 -29.8046875 38.48046875 C-22.61250949 24.11764619 -11.30235491 11.30235491 0 0 Z " fill="#019192" transform="translate(169,318)"/>
<path d="M0 0 C21.62363493 17.03926205 21.62363493 17.03926205 23.82177734 21.43554688 C19.94971335 20.86190776 17.63712671 19.09448795 14.82177734 16.43554688 C14.82177734 15.44554687 14.82177734 14.45554688 14.82177734 13.43554688 C13.17177734 13.10554688 11.52177734 12.77554688 9.82177734 12.43554688 C9.82177734 11.77554688 9.82177734 11.11554688 9.82177734 10.43554688 C8.91427734 10.18804687 8.00677734 9.94054687 7.07177734 9.68554688 C3.82177734 8.43554688 3.82177734 8.43554688 1.88427734 6.37304688 C-0.94228585 3.71779054 -3.39764281 3.72636071 -7.17822266 3.43554688 C-7.17822266 1.45554688 -7.17822266 -0.52445313 -7.17822266 -2.56445312 C-8.82822266 -2.89445312 -10.47822266 -3.22445312 -12.17822266 -3.56445312 C-12.17822266 -4.22445312 -12.17822266 -4.88445312 -12.17822266 -5.56445312 C-13.16822266 -5.56445312 -14.15822266 -5.56445312 -15.17822266 -5.56445312 C-16.53254941 -6.87645717 -17.86555748 -8.21076716 -19.17822266 -9.56445312 C-20.66322266 -10.05945313 -20.66322266 -10.05945313 -22.17822266 -10.56445312 C-22.17822266 -11.22445312 -22.17822266 -11.88445312 -22.17822266 -12.56445312 C-23.16822266 -12.23445312 -24.15822266 -11.90445313 -25.17822266 -11.56445312 C-25.17822266 -12.55445313 -25.17822266 -13.54445312 -25.17822266 -14.56445312 C-27.15822266 -13.90445313 -29.13822266 -13.24445313 -31.17822266 -12.56445312 C-31.17822266 -13.22445312 -31.17822266 -13.88445312 -31.17822266 -14.56445312 C-30.51822266 -14.89445313 -29.85822266 -15.22445312 -29.17822266 -15.56445312 C-33.98852681 -18.10270393 -33.98852681 -18.10270393 -39.17822266 -19.56445312 C-40.43634766 -19.79132813 -41.69447266 -20.01820313 -42.99072266 -20.25195312 C-47.19463753 -20.77251294 -50.21142298 -19.96936134 -54.17822266 -18.56445312 C-53.84822266 -19.55445313 -53.51822266 -20.54445312 -53.17822266 -21.56445312 C-53.83822266 -21.56445312 -54.49822266 -21.56445312 -55.17822266 -21.56445312 C-55.67322266 -23.04945313 -55.67322266 -23.04945313 -56.17822266 -24.56445312 C-59.42805266 -24.65174195 -62.67758016 -24.7049397 -65.92822266 -24.75195312 C-66.84861328 -24.77708984 -67.76900391 -24.80222656 -68.71728516 -24.828125 C-69.60673828 -24.83779297 -70.49619141 -24.84746094 -71.41259766 -24.85742188 C-72.22954102 -24.87313232 -73.04648438 -24.88884277 -73.88818359 -24.9050293 C-76.70646138 -24.4858931 -77.97821931 -23.31954054 -80.17822266 -21.56445312 C-82.1749575 -21.21208815 -84.17473005 -20.87610753 -86.17822266 -20.56445312 C-86.50822266 -19.90445313 -86.83822266 -19.24445313 -87.17822266 -18.56445312 C-87.67322266 -19.05945313 -87.67322266 -19.05945313 -88.17822266 -19.56445312 C-92.54258502 -18.40062316 -94.84104687 -17.50074918 -97.17822266 -13.56445312 C-97.50822266 -12.90445313 -97.83822266 -12.24445313 -98.17822266 -11.56445312 C-98.76216797 -11.77457031 -99.34611328 -11.9846875 -99.94775391 -12.20117188 C-102.17597013 -12.7754911 -102.17597013 -12.7754911 -104.06494141 -11.70898438 C-104.65919922 -11.26941406 -105.25345703 -10.82984375 -105.86572266 -10.37695312 C-106.46771484 -9.95027344 -107.06970703 -9.52359375 -107.68994141 -9.08398438 C-109.34738353 -7.64957741 -109.34738353 -7.64957741 -109.69775391 -5.45117188 C-109.93558594 -4.51724609 -109.93558594 -4.51724609 -110.17822266 -3.56445312 C-111.16822266 -3.23445313 -112.15822266 -2.90445313 -113.17822266 -2.56445312 C-113.86442297 -1.24106681 -114.52608727 0.09504635 -115.17822266 1.43554688 C-116.40962746 2.8937894 -117.64163835 4.35154525 -118.88134766 5.80273438 C-124.08157988 12.3500147 -127.30986774 19.97500558 -127.99072266 28.28710938 C-128.17822266 30.43554688 -128.17822266 30.43554688 -128.80322266 33.87304688 C-129.42521795 36.4182336 -129.42521795 36.4182336 -128.17822266 38.43554688 C-128.34322266 39.52867187 -128.50822266 40.62179688 -128.67822266 41.74804688 C-129.15503243 45.26451898 -128.98062661 47.06545027 -128.17822266 50.43554688 C-128.13955078 51.10457031 -128.10087891 51.77359375 -128.06103516 52.46289062 C-127.74260679 57.94173165 -126.42604566 61.33449196 -123.23681641 65.80664062 C-122.17822266 67.43554688 -122.17822266 67.43554688 -122.17822266 69.43554688 C-121.18822266 69.76554687 -120.19822266 70.09554687 -119.17822266 70.43554688 C-119.50822266 72.08554688 -119.83822266 73.73554688 -120.17822266 75.43554688 C-119.51822266 75.43554688 -118.85822266 75.43554688 -118.17822266 75.43554688 C-118.17822266 76.09554687 -118.17822266 76.75554687 -118.17822266 77.43554688 C-117.18822266 77.76554687 -116.19822266 78.09554687 -115.17822266 78.43554688 C-113.99072266 81.99804688 -113.99072266 81.99804688 -113.17822266 85.43554688 C-125.22193358 74.45451632 -131.63961046 59.08278686 -132.46337891 42.95898438 C-132.72511199 34.05818323 -132.06400035 25.9304769 -129.17822266 17.43554688 C-128.91138672 16.60023438 -128.64455078 15.76492187 -128.36962891 14.90429688 C-125.83604375 7.78773769 -121.8684135 1.34396911 -117.17822266 -4.56445312 C-116.51822266 -4.56445312 -115.85822266 -4.56445312 -115.17822266 -4.56445312 C-114.86884766 -5.40169922 -114.86884766 -5.40169922 -114.55322266 -6.25585938 C-112.67633728 -9.40710727 -110.06668681 -11.3339554 -107.17822266 -13.50195312 C-106.59588867 -13.94289307 -106.01355469 -14.38383301 -105.41357422 -14.83813477 C-70.59602758 -40.62696692 -30.27212165 -23.68128721 0 0 Z " fill="#9EDE5C" transform="translate(199.17822265625,170.564453125)"/>
<path d="M0 0 C2.32970046 3.67905279 2.25805705 6.86212569 2.265625 11.15234375 C2.26849518 12.19631065 2.26849518 12.19631065 2.27142334 13.2613678 C2.27278258 14.73650473 2.26910433 16.21165372 2.26074219 17.68676758 C2.25018428 19.89888934 2.26056929 22.11017151 2.2734375 24.32226562 C2.28711912 36.3408896 1.10834856 47.82275453 -2.625 59.3125 C-3.01413574 60.51543701 -3.01413574 60.51543701 -3.41113281 61.74267578 C-10.06085087 81.52382886 -22.58951661 102.10964576 -41 113 C-41.99 113 -42.98 113 -44 113 C-44.24645264 111.98800537 -44.49290527 110.97601074 -44.74682617 109.93334961 C-45.68174417 106.10170389 -46.62501807 102.27215261 -47.57055664 98.44311523 C-47.97510639 96.80010215 -48.37752571 95.15656271 -48.77758789 93.51245117 C-51.12675167 83.8652579 -53.69739921 74.44594 -57.07543945 65.10375977 C-57.94132568 62.19697034 -58.19804963 60.00521851 -58 57 C-57.34 57.33 -56.68 57.66 -56 58 C-56 58.66 -56 59.32 -56 60 C-55.34 60.33 -54.68 60.66 -54 61 C-54 61.33 -54 61.66 -54 62 C-53.01 62.33 -52.02 62.66 -51 63 C-50.896875 64.299375 -50.79375 65.59875 -50.6875 66.9375 C-50.11592908 72.77929104 -49.07950785 78.51678175 -48.01635742 84.28491211 C-47 89.81994817 -47 89.81994817 -47 92 C-45.68 92.33 -44.36 92.66 -43 93 C-43 95 -43 97 -43 99 C-42.071875 99.268125 -41.14375 99.53625 -40.1875 99.8125 C-37.23759634 100.91148371 -35.94384814 101.62418561 -34 104 C-33.87625 103.401875 -33.7525 102.80375 -33.625 102.1875 C-33 100 -33 100 -31 97 C-27.875 95.8125 -27.875 95.8125 -25 95 C-24.67 92.36 -24.34 89.72 -24 87 C-23.01 87.495 -23.01 87.495 -22 88 C-21.505 86.02 -21.505 86.02 -21 84 C-19.68 84.33 -18.36 84.66 -17 85 C-16.67 82.69 -16.34 80.38 -16 78 C-15.01 77.67 -14.02 77.34 -13 77 C-13 76.34 -13 75.68 -13 75 C-12.34 75 -11.68 75 -11 75 C-10.86722656 74.278125 -10.73445313 73.55625 -10.59765625 72.8125 C-9.84824956 69.28588029 -8.73933821 65.92428926 -7.62109375 62.5 C-6.97620532 59.90422269 -6.89060806 57.66345604 -7 55 C-6.01 54.67 -5.02 54.34 -4 54 C-0.56189765 45.15954613 -0.64821567 35.7701681 -0.875 26.4375 C-1.03419677 17.54589206 -0.93275001 8.85091996 0 0 Z " fill="#1BB97B" transform="translate(321,332)"/>
<path d="M0 0 C5.01666244 -0.28942283 7.10998339 -0.03907548 11 3 C15.42596103 3.8394064 18.72525847 4.42491384 23 3 C23.04125 3.928125 23.0825 4.85625 23.125 5.8125 C23.69537444 9.26224056 23.69537444 9.26224056 26.9375 10.9375 C27.948125 11.288125 28.95875 11.63875 30 12 C30.66 11.67 31.32 11.34 32 11 C32 11.66 32 12.32 32 13 C35.465 12.505 35.465 12.505 39 12 C39.495 14.97 39.495 14.97 40 18 C40.598125 18.144375 41.19625 18.28875 41.8125 18.4375 C43.56150404 18.8872439 45.28677023 19.42892341 47 20 C46.67 20.66 46.34 21.32 46 22 C46.99 22.33 47.98 22.66 49 23 C49.495 23.99 49.495 23.99 50 25 C51.97189997 25.94980576 51.97189997 25.94980576 54.3125 26.6875 C55.48232422 27.09548828 55.48232422 27.09548828 56.67578125 27.51171875 C59.18274511 28.03839183 60.60132343 27.8178554 63 27 C63 27.99 63 28.98 63 30 C62.34 30 61.68 30 61 30 C61.66 31.98 62.32 33.96 63 36 C63.94875 35.79375 64.8975 35.5875 65.875 35.375 C67.421875 35.189375 67.421875 35.189375 69 35 C71.70165032 37.70165032 71 39.29811832 71 43 C71.99 43 72.98 43 74 43 C75.67099977 43.31088368 77.33871537 43.64080332 79 44 C78.34 45.32 77.68 46.64 77 48 C79.05611756 50.99397838 79.05611756 50.99397838 82 53 C82.99 52.01 82.99 52.01 84 51 C84.66 51.99 85.32 52.98 86 54 C85.79375 54.7425 85.5875 55.485 85.375 56.25 C84.91121705 59.651075 85.88925521 61.54072156 87.67578125 64.41796875 C89.70243031 66.83918665 92.1004208 67.87970804 95 69 C94.67 71.97 94.34 74.94 94 78 C94.66 78 95.32 78 96 78 C97.35386936 79.65002828 98.68678142 81.3174387 100 83 C100.66 83.33 101.32 83.66 102 84 C102.4140625 86.50390625 102.4140625 86.50390625 102.625 89.5625 C102.73714844 91.08037109 102.73714844 91.08037109 102.8515625 92.62890625 C102.92503906 93.80259766 102.92503906 93.80259766 103 95 C102.01 95 101.02 95 100 95 C99.36384766 93.47632813 99.36384766 93.47632813 98.71484375 91.921875 C95.03536808 83.23216228 91.08385046 74.9782275 86 67 C85.34515625 65.96488281 84.6903125 64.92976563 84.015625 63.86328125 C64.42419948 34.22588753 32.69922748 13.72686696 0 1 C0 0.67 0 0.34 0 0 Z " fill="#3FBB7D" transform="translate(161,293)"/>
<path d="M0 0 C3.16726906 2.61160782 4.20994159 5.58125444 5.625 9.375 C6.05039062 10.49648437 6.47578125 11.61796875 6.9140625 12.7734375 C12.07450679 28.10626836 9.54900824 45.58275884 3 60 C-5.43722881 76.0751412 -19.13996282 85.86533446 -36 92 C-51.03556225 96.22635055 -67.98054493 93.04992295 -81.3125 85.6875 C-86.34179513 82.60179701 -90.76361556 79.09932494 -95 75 C-93.515 74.01 -93.515 74.01 -92 73 C-91.34 73.33 -90.68 73.66 -90 74 C-88.515 73.01 -88.515 73.01 -87 72 C-85 75 -85 75 -85 79 C-84.071875 78.9175 -83.14375 78.835 -82.1875 78.75 C-79 79 -79 79 -77.125 80.8125 C-76 83 -76 83 -76 86 C-74.1746875 86.185625 -74.1746875 86.185625 -72.3125 86.375 C-68.91022491 86.7837539 -66.1815681 87.72737276 -63 89 C-62.01 88.67 -61.02 88.34 -60 88 C-58.9275 88.309375 -57.855 88.61875 -56.75 88.9375 C-52.31140507 90.1951019 -48.14290982 91.07145491 -43.875 88.9375 C-42 88 -42 88 -39.8125 88.625 C-35.88858936 89.14818809 -33.46757823 87.63518584 -29.98828125 85.91015625 C-28 85 -28 85 -26 85 C-26.33 83.35 -26.66 81.7 -27 80 C-25.02 80.33 -23.04 80.66 -21 81 C-20.67 80.34 -20.34 79.68 -20 79 C-16.9375 78.375 -16.9375 78.375 -14 78 C-14 77.34 -14 76.68 -14 76 C-13.34 76 -12.68 76 -12 76 C-11.896875 75.401875 -11.79375 74.80375 -11.6875 74.1875 C-10.90175967 71.68741714 -10.03081147 70.62464918 -8 69 C-7.34 69 -6.68 69 -6 69 C-4.5879179 64.88990012 -4.5879179 64.88990012 -3.5 60.6875 C-3.335 60.130625 -3.17 59.57375 -3 59 C-2.34 58.67 -1.68 58.34 -1 58 C-0.67 57.01 -0.34 56.02 0 55 C0.99 55 1.98 55 3 55 C3.90724694 50.9821921 4.3391784 46.98457583 4.71875 42.890625 C5 41 5 41 6 40 C6.94977416 34.96234651 7.08634743 30.15776685 6.75 25.0625 C6.70625244 24.3610083 6.66250488 23.6595166 6.61743164 22.93676758 C6.22075204 17.74129122 5.1254898 13.71304261 3 9 C3 8.01 3 7.02 3 6 C2.01 5.67 1.02 5.34 0 5 C0 3.35 0 1.7 0 0 Z " fill="#2EAB7A" transform="translate(300,57)"/>
<path d="M0 0 C-3.76624671 1.25541557 -5.37188934 0.37061958 -9 -1 C-9 -1.66 -9 -2.32 -9 -3 C-11.51974253 -3.65035371 -14.04065935 -4.29537493 -16.5625 -4.9375 C-17.26697266 -5.11990234 -17.97144531 -5.30230469 -18.69726562 -5.49023438 C-25.64241411 -7.25052546 -32.24846146 -8.13096703 -39.4375 -8.0625 C-41.29181641 -8.04896484 -41.29181641 -8.04896484 -43.18359375 -8.03515625 C-44.57771484 -8.01775391 -44.57771484 -8.01775391 -46 -8 C-46.66 -6.68 -47.32 -5.36 -48 -4 C-49.65 -4 -51.3 -4 -53 -4 C-53 -4.66 -53 -5.32 -53 -6 C-53.86625 -5.71125 -54.7325 -5.4225 -55.625 -5.125 C-57.8380649 -4.3873117 -60.06788957 -3.6977671 -62.3125 -3.0625 C-63.199375 -2.711875 -64.08625 -2.36125 -65 -2 C-65.33 -1.01 -65.66 -0.02 -66 1 C-66.86625 0.9175 -67.7325 0.835 -68.625 0.75 C-72.79022433 1.05853514 -74.6493288 2.59625762 -78 5 C-78.95712891 5.21849609 -78.95712891 5.21849609 -79.93359375 5.44140625 C-82.48692166 6.13162533 -83.9036939 7.32462705 -85.9375 9 C-89.04034247 11.42931266 -91.09908601 12.34984767 -95 13 C-96.37195574 14.29355827 -97.71182656 15.62298702 -99 17 C-99.66 17 -100.32 17 -101 17 C-101.33 17.99 -101.66 18.98 -102 20 C-102.61875 20.103125 -103.2375 20.20625 -103.875 20.3125 C-106.37464525 20.85776352 -106.37464525 20.85776352 -107.75 24.0625 C-108.1625 25.031875 -108.575 26.00125 -109 27 C-109.99 27 -110.98 27 -112 27 C-112.66 27.66 -113.32 28.32 -114 29 C-115.485 29.495 -115.485 29.495 -117 30 C-119.127723 31.87239624 -120.40184751 33.60277126 -122 36 C-121.05125 36.0825 -120.1025 36.165 -119.125 36.25 C-116 37 -116 37 -114.625 39.0625 C-114.41875 39.701875 -114.2125 40.34125 -114 41 C-114.66 41.99 -115.32 42.98 -116 44 C-119.39192363 43.40716379 -121.2107757 42.23256811 -123.75 39.9375 C-124.36359375 39.38964844 -124.9771875 38.84179688 -125.609375 38.27734375 C-126.06828125 37.85582031 -126.5271875 37.43429688 -127 37 C-126.82620891 33.14183791 -126.07506402 32.069844 -123.19140625 29.38671875 C-121.99181911 28.47362519 -120.78148871 27.57452631 -119.5625 26.6875 C-118.27166979 25.71546178 -116.98130712 24.74280238 -115.69140625 23.76953125 C-115.05734863 23.29725098 -114.42329102 22.8249707 -113.77001953 22.33837891 C-111.45407134 20.58720263 -109.23055923 18.73317873 -107 16.875 C-76.62002515 -7.33018322 -35.78508276 -20.33243339 0 0 Z " fill="#25BCAB" transform="translate(394,171)"/>
<path d="M0 0 C0.66 0 1.32 0 2 0 C2.268125 0.639375 2.53625 1.27875 2.8125 1.9375 C3.88667752 4.33131686 3.88667752 4.33131686 7 5 C7.0825 5.94875 7.165 6.8975 7.25 7.875 C7.82999528 11.91080048 9.25455751 15.37380098 10.81640625 19.12109375 C14.19349159 27.33532442 17.13189048 35.14528285 18 44 C18.66 44.33 19.32 44.66 20 45 C20.41064453 47.04125977 20.41064453 47.04125977 20.6328125 49.69140625 C20.75849609 51.10776367 20.75849609 51.10776367 20.88671875 52.55273438 C20.96535156 53.54595703 21.04398437 54.53917969 21.125 55.5625 C21.21136719 56.55958984 21.29773438 57.55667969 21.38671875 58.58398438 C21.59956793 61.05539988 21.80359321 63.52723225 22 66 C26.23084903 64.31192092 26.23084903 64.31192092 29 61 C29.99 61 30.98 61 32 61 C32 60.34 32 59.68 32 59 C33.98 58.505 33.98 58.505 36 58 C36 57.01 36 56.02 36 55 C37.32 55 38.64 55 40 55 C40.0825 54.4225 40.165 53.845 40.25 53.25 C41.225982 50.32205399 42.63511223 48.94755463 45 47 C45.99 47 46.98 47 48 47 C48 46.01 48 45.02 48 44 C49.63631892 42.95107762 51.30485863 41.95093297 53 41 C53.495 40.01 53.495 40.01 54 39 C54.66 39 55.32 39 56 39 C56.66 37.68 57.32 36.36 58 35 C58.66 35 59.32 35 60 35 C60 32.69 60 30.38 60 28 C60.66 28 61.32 28 62 28 C62 28.66 62 29.32 62 30 C65.47162014 28.84279329 66.13156927 28.0574321 68 25 C68.144375 24.13375 68.28875 23.2675 68.4375 22.375 C69 20 69 20 70.8125 18.75 C72.86348687 18.0468045 74.88022529 17.45423744 77 17 C73.92904568 23.00804653 70.05338848 27.48231507 65.375 32.3125 C64.66150391 33.05870605 63.94800781 33.80491211 63.21289062 34.57373047 C61.15049635 36.72431309 59.07778543 38.86429539 57 41 C56.47438477 41.54221191 55.94876953 42.08442383 55.40722656 42.64306641 C50.16054476 48.03803195 44.75051793 53.14831969 39 58 C38.03707031 58.82886719 37.07414062 59.65773438 36.08203125 60.51171875 C30.98186319 64.86894266 26.03619402 68.98190299 20 72 C18.1932233 70.1932233 18.6541128 67.64991356 18.45654297 65.22509766 C16.82824408 45.71245687 11.35050546 28.05847189 4 10 C3.2501378 8.12937255 2.50141566 6.25828763 1.75390625 4.38671875 C1.41818604 3.54713623 1.08246582 2.70755371 0.73657227 1.8425293 C0.49350342 1.23449463 0.25043457 0.62645996 0 0 Z " fill="#218691" transform="translate(324,277)"/>
<path d="M0 0 C6.19472776 4.95578221 11.42501648 10.65576474 16.69824219 16.54980469 C17.83389947 17.81495928 18.98229787 19.06865373 20.1328125 20.3203125 C33.72347834 35.23152887 57.04021846 61.40400515 58.1875 82.4375 C58.0946875 83.7059375 58.0946875 83.7059375 58 85 C56.02 83.68 54.04 82.36 52 81 C52.33 80.34 52.66 79.68 53 79 C52.01 79 51.02 79 50 79 C49.81824219 77.86820312 49.63648438 76.73640625 49.44921875 75.5703125 C49.19598508 74.08842658 48.94204189 72.60666177 48.6875 71.125 C48.51057617 70.00544922 48.51057617 70.00544922 48.33007812 68.86328125 C47.98331947 66.88942432 47.49860425 64.94106841 47 63 C46.01 62.34 45.02 61.68 44 61 C44 61.66 44 62.32 44 63 C43.01 63.33 42.02 63.66 41 64 C40.94392578 62.62714844 40.94392578 62.62714844 40.88671875 61.2265625 C40.82097656 60.03804688 40.75523437 58.84953125 40.6875 57.625 C40.62949219 56.44164062 40.57148438 55.25828125 40.51171875 54.0390625 C40.25841797 52.53472656 40.25841797 52.53472656 40 51 C37.38058783 49.25372522 35.96175123 48.61277612 33 48 C32.814375 46.6696875 32.814375 46.6696875 32.625 45.3125 C32.05587264 42.29612498 31.23385564 39.79673946 30 37 C28.35 37 26.7 37 25 37 C24.855625 36.113125 24.71125 35.22625 24.5625 34.3125 C24.376875 33.219375 24.19125 32.12625 24 31 C23.896875 30.0925 23.79375 29.185 23.6875 28.25 C23.21174802 25.82085146 23.21174802 25.82085146 20.9375 24.6875 C20.298125 24.460625 19.65875 24.23375 19 24 C19.33 23.34 19.66 22.68 20 22 C19.34 22 18.68 22 18 22 C18 21.34 18 20.68 18 20 C17.071875 19.690625 16.14375 19.38125 15.1875 19.0625 C13.125 18.375 11.0625 17.6875 9 17 C8.67 14.69 8.34 12.38 8 10 C7.01 10 6.02 10 5 10 C3.33333333 6.66666667 1.66666667 3.33333333 0 0 Z " fill="#2EBD7D" transform="translate(256,222)"/>
<path d="M0 0 C0 0.33 0 0.66 0 1 C-5.89047313 1.10334163 -11.4603099 0.87869068 -17.21875 -0.55078125 C-25.7057061 -1.9215677 -36.42512203 -1.0904341 -44 3 C-45.55966008 5.01979579 -45.55966008 5.01979579 -46 7 C-47.11375 6.979375 -48.2275 6.95875 -49.375 6.9375 C-52.83215921 6.73619282 -52.83215921 6.73619282 -55 8 C-55 9.32 -55 10.64 -55 12 C-57.90600261 13.25664978 -59.79604584 14 -63 14 C-64.47047336 17.91063224 -64.47047336 17.91063224 -65 22 C-65.66 22 -66.32 22 -67 22 C-67 22.66 -67 23.32 -67 24 C-67.78375 24.20625 -68.5675 24.4125 -69.375 24.625 C-72.2706973 25.78407606 -72.2706973 25.78407606 -73.1875 28.875 C-73.455625 29.90625 -73.72375 30.9375 -74 32 C-74.64481203 33.34403857 -75.31343534 34.67680266 -76 36 C-80.50283266 45.35744913 -82.27687207 53.64785285 -83 64 C-83.33 64 -83.66 64 -84 64 C-84.67859767 45.8286623 -81.24580098 29.41147264 -68.6875 15.5625 C-63.98112712 10.59254428 -58.85003732 6.54136188 -53 3 C-52.071875 2.4225 -51.14375 1.845 -50.1875 1.25 C-34.75413917 -4.80229837 -15.71348059 -5.56933489 0 0 Z " fill="#82CF69" transform="translate(272,32)"/>
<path d="M0 0 C0.33 0 0.66 0 1 0 C3.91774743 15.89709796 3.05752797 32.68545039 -2 48 C-2.25394531 48.97839844 -2.50789063 49.95679688 -2.76953125 50.96484375 C-5.78236243 61.78432123 -12.3872248 75.52476115 -21 83 C-21.495 80.525 -21.495 80.525 -22 78 C-20.515 77.505 -20.515 77.505 -19 77 C-18.7834375 76.13375 -18.7834375 76.13375 -18.5625 75.25 C-18 73 -18 73 -16 70.5625 C-13.91008453 67.8847958 -13.27140583 66.34733852 -13 63 C-13.33 62.34 -13.66 61.68 -14 61 C-13.01 61 -12.02 61 -11 61 C-10.88527344 60.41347656 -10.77054687 59.82695312 -10.65234375 59.22265625 C-9.95501344 56.84672246 -9.01214249 55.42914532 -7.5625 53.4375 C-3.94709375 47.87855166 -3 41.5586319 -3 35 C-2.34 35 -1.68 35 -1 35 C-1.185625 34.236875 -1.37125 33.47375 -1.5625 32.6875 C-2 30 -2 30 -1 27 C-0.34 27 0.32 27 1 27 C0.67 18.09 0.34 9.18 0 0 Z " fill="#1C8692" transform="translate(422,211)"/>
<path d="M0 0 C5.48947888 0.4627147 9.37726097 1.93223114 14.0625 4.875 C15.02869263 5.46849243 15.02869263 5.46849243 16.0144043 6.07397461 C22.52041368 10.16394244 28.50166909 14.85952008 34.43798828 19.72607422 C36.68363318 21.55754891 38.97035268 23.33613479 41.25 25.125 C55.13486842 36.26973684 55.13486842 36.26973684 57 40 C53.12793601 39.42636089 50.81534937 37.65894107 48 35 C48 34.01 48 33.02 48 32 C46.35 31.67 44.7 31.34 43 31 C43 30.34 43 29.68 43 29 C42.0925 28.7525 41.185 28.505 40.25 28.25 C37 27 37 27 35.0625 24.9375 C32.23593681 22.28224367 29.78057984 22.29081383 26 22 C26 20.02 26 18.04 26 16 C23.525 15.505 23.525 15.505 21 15 C21 14.34 21 13.68 21 13 C20.01 13 19.02 13 18 13 C16.64567325 11.68799596 15.31266518 10.35368596 14 9 C13.01 8.67 12.02 8.34 11 8 C11 7.34 11 6.68 11 6 C10.01 6.33 9.02 6.66 8 7 C8 6.01 8 5.02 8 4 C6.02 4.66 4.04 5.32 2 6 C2 5.34 2 4.68 2 4 C2.66 3.67 3.32 3.34 4 3 C2.68 2.01 1.36 1.02 0 0 Z " fill="#87D46A" transform="translate(166,152)"/>
<path d="M0 0 C2.32970046 3.67905279 2.25805705 6.86212569 2.265625 11.15234375 C2.26753845 11.84832169 2.2694519 12.54429962 2.27142334 13.2613678 C2.27278258 14.73650473 2.26910433 16.21165372 2.26074219 17.68676758 C2.25018428 19.89888934 2.26056929 22.11017151 2.2734375 24.32226562 C2.28727316 36.40147879 1.07676317 47.89518071 -2.6875 59.4375 C-2.94225098 60.23518799 -3.19700195 61.03287598 -3.45947266 61.85473633 C-5.92726318 69.29455206 -9.21816231 76.14122336 -13 83 C-14.09658936 79.71023192 -13.79953138 78.28696233 -13 75 C-12.34 75 -11.68 75 -11 75 C-10.80083984 73.9171875 -10.80083984 73.9171875 -10.59765625 72.8125 C-9.84824956 69.28588029 -8.73933821 65.92428926 -7.62109375 62.5 C-6.97620532 59.90422269 -6.89060806 57.66345604 -7 55 C-5.515 54.505 -5.515 54.505 -4 54 C-0.56189765 45.15954613 -0.64821567 35.7701681 -0.875 26.4375 C-1.03419677 17.54589206 -0.93275001 8.85091996 0 0 Z " fill="#36B582" transform="translate(321,332)"/>
<path d="M0 0 C3.25696479 0.41755959 4.63443291 0.63443291 7 3 C5.96875 3.20625 4.9375 3.4125 3.875 3.625 C-0.66635322 4.8777871 -2.83714029 7.61647566 -6 11 C-6.66 11 -7.32 11 -8 11 C-8.0825 11.556875 -8.165 12.11375 -8.25 12.6875 C-9.22610013 15.69714206 -10.95188814 17.62154752 -13 20 C-12.67 20.66 -12.34 21.32 -12 22 C-12.45375 22.4125 -12.9075 22.825 -13.375 23.25 C-15.61027242 25.65721646 -16.86360716 27.8406609 -17.25 31.125 C-17.4975 31.74375 -17.745 32.3625 -18 33 C-20.9375 34.1875 -20.9375 34.1875 -24 35 C-27.21676586 36.60838293 -27.64670854 39.78593279 -29 43 C-29.66 43.66 -30.32 44.32 -31 45 C-31 29.20972834 -10.50821996 10.50821996 0 0 Z " fill="#1DA795" transform="translate(169,318)"/>
<path d="M0 0 C-3.76624671 1.25541557 -5.37188934 0.37061958 -9 -1 C-9 -1.66 -9 -2.32 -9 -3 C-11.51974253 -3.65035371 -14.04065935 -4.29537493 -16.5625 -4.9375 C-17.26697266 -5.11990234 -17.97144531 -5.30230469 -18.69726562 -5.49023438 C-25.64241411 -7.25052546 -32.24846146 -8.13096703 -39.4375 -8.0625 C-41.29181641 -8.04896484 -41.29181641 -8.04896484 -43.18359375 -8.03515625 C-44.57771484 -8.01775391 -44.57771484 -8.01775391 -46 -8 C-46.66 -6.68 -47.32 -5.36 -48 -4 C-49.65 -4 -51.3 -4 -53 -4 C-53 -4.66 -53 -5.32 -53 -6 C-54.299375 -5.566875 -54.299375 -5.566875 -55.625 -5.125 C-57.8380649 -4.3873117 -60.06788957 -3.6977671 -62.3125 -3.0625 C-63.199375 -2.711875 -64.08625 -2.36125 -65 -2 C-65.33 -1.01 -65.66 -0.02 -66 1 C-66.97839844 0.98259766 -66.97839844 0.98259766 -67.9765625 0.96484375 C-72.7761914 0.91529006 -77.27784685 1.00586249 -82 2 C-60.40966252 -16.41206445 -22.86098769 -12.98919755 0 0 Z " fill="#2EBAB3" transform="translate(394,171)"/>
<path d="M0 0 C3.83132316 1.56090944 6.1075134 4.1075134 9 7 C9.99 7.33 10.98 7.66 12 8 C12.66 7.34 13.32 6.68 14 6 C14.99 7.485 14.99 7.485 16 9 C15.79375 9.7425 15.5875 10.485 15.375 11.25 C14.91121705 14.651075 15.88925521 16.54072156 17.67578125 19.41796875 C19.70243031 21.83918665 22.1004208 22.87970804 25 24 C24.67 26.97 24.34 29.94 24 33 C24.66 33 25.32 33 26 33 C27.35386936 34.65002828 28.68678142 36.3174387 30 38 C30.66 38.33 31.32 38.66 32 39 C32.4140625 41.50390625 32.4140625 41.50390625 32.625 44.5625 C32.69976562 45.57441406 32.77453125 46.58632813 32.8515625 47.62890625 C32.90054688 48.41136719 32.94953125 49.19382812 33 50 C32.01 50 31.02 50 30 50 C29.57589844 48.98421875 29.15179688 47.9684375 28.71484375 46.921875 C21.86148181 30.73648564 13.22898142 15.35826566 1.21484375 2.390625 C0 1 0 1 0 0 Z " fill="#32B77D" transform="translate(231,338)"/>
<path d="M0 0 C2.3125 -0.3125 2.3125 -0.3125 5 0 C5.474375 0.825 5.94875 1.65 6.4375 2.5 C6.953125 3.325 7.46875 4.15 8 5 C11.12635209 5.41746608 11.12635209 5.41746608 14 5 C14.33 7.31 14.66 9.62 15 12 C18.28976808 13.09658936 19.71303767 12.79953138 23 12 C23 13.65 23 15.3 23 17 C22.01 17.33 21.02 17.66 20 18 C21.20728609 21.51202512 21.20728609 21.51202512 23 25 C25.06890419 26.04289755 25.06890419 26.04289755 27 26 C27 28.31 27 30.62 27 33 C24.07816537 30.22553861 21.77577703 27.3813415 19.5 24.0625 C15.75272987 18.80503061 11.59607206 14.14218904 7.125 9.50415039 C4.2790799 6.52331052 1.96202409 3.62940975 0 0 Z " fill="#0EB2A7" transform="translate(281,220)"/>
<path d="M0 0 C0 0.33 0 0.66 0 1 C-7.52767528 1.25092251 -7.52767528 1.25092251 -10 -0.0625 C-14.16139416 -2.01315351 -19.73110009 -0.24509581 -24 1 C-23.67 0.01 -23.34 -0.98 -23 -2 C-23.66 -2 -24.32 -2 -25 -2 C-25.495 -3.485 -25.495 -3.485 -26 -5 C-29.87493616 -5.05834395 -33.74975836 -5.09371201 -37.625 -5.125 C-38.71941406 -5.14175781 -39.81382812 -5.15851563 -40.94140625 -5.17578125 C-46.46201784 -5.2092395 -50.78196444 -4.95882092 -56 -3 C-58.375 -3.375 -58.375 -3.375 -60 -4 C-58.64870353 -4.48720213 -57.29375684 -4.96428184 -55.9375 -5.4375 C-54.80634766 -5.83775391 -54.80634766 -5.83775391 -53.65234375 -6.24609375 C-35.77355263 -11.32798872 -16.60883035 -7.19526383 0 0 Z " fill="#A2D972" transform="translate(169,151)"/>
<path d="M0 0 C12.15532813 3.59297199 22.26019966 13.16205417 32 21 C31.34 21.66 30.68 22.32 30 23 C27.0625 21.6875 27.0625 21.6875 24 20 C23.67 19.01 23.34 18.02 23 17 C19.24092359 15.37676246 16.07913787 14.76005071 12 15 C12 14.34 12 13.68 12 13 C11.01 13.33 10.02 13.66 9 14 C8.7525 12.88625 8.505 11.7725 8.25 10.625 C7.3754326 6.98954113 7.3754326 6.98954113 5 5.5 C2.94576739 4.75595323 2.94576739 4.75595323 1 6 C0.67 4.02 0.34 2.04 0 0 Z " fill="#06A89E" transform="translate(176,321)"/>
<path d="M0 0 C5.45876423 5.45876423 6.203055 17.21012052 6.38037109 24.64331055 C6.37178864 28.10945321 6.2147675 31.53947204 6 35 C5.94070312 36.00933594 5.88140625 37.01867187 5.8203125 38.05859375 C4.85023525 46.20960868 0.53253445 52.36985077 -4 59 C-5.24546405 56.50907189 -4.7767578 55.58919267 -4 53 C-3.34 53 -2.68 53 -2 53 C-2 52.01 -2 51.02 -2 50 C-1.34 50 -0.68 50 0 50 C0.13277344 49.14535156 0.26554688 48.29070312 0.40234375 47.41015625 C0.66724609 45.75306641 0.66724609 45.75306641 0.9375 44.0625 C1.11152344 42.96035156 1.28554687 41.85820312 1.46484375 40.72265625 C2 38 2 38 3 37 C3.09907392 35.48566449 3.13079656 33.96679037 3.1328125 32.44921875 C3.13410156 31.52302734 3.13539063 30.59683594 3.13671875 29.64257812 C3.13285156 28.66740234 3.12898437 27.69222656 3.125 26.6875 C3.12886719 25.72392578 3.13273438 24.76035156 3.13671875 23.76757812 C3.13478516 22.37249023 3.13478516 22.37249023 3.1328125 20.94921875 C3.13168457 20.09674561 3.13055664 19.24427246 3.12939453 18.3659668 C3.00605736 16.11075821 2.62910755 14.16314289 2 12 C1.01 12.495 1.01 12.495 0 13 C-1.0161692 8.37078475 -0.83796731 4.65537393 0 0 Z " fill="#2B7D86" transform="translate(235,378)"/>
<path d="M0 0 C6.18539764 4.94831811 11.41053827 10.63853461 16.67626953 16.5234375 C17.87979141 17.86591266 19.09363699 19.19911467 20.30859375 20.53125 C31 32.33423913 31 32.33423913 31 37 C29.02 37 27.04 37 25 37 C24.855625 36.113125 24.71125 35.22625 24.5625 34.3125 C24.376875 33.219375 24.19125 32.12625 24 31 C23.896875 30.0925 23.79375 29.185 23.6875 28.25 C23.21174802 25.82085146 23.21174802 25.82085146 20.9375 24.6875 C20.298125 24.460625 19.65875 24.23375 19 24 C19.33 23.34 19.66 22.68 20 22 C19.34 22 18.68 22 18 22 C18 21.34 18 20.68 18 20 C17.071875 19.690625 16.14375 19.38125 15.1875 19.0625 C13.125 18.375 11.0625 17.6875 9 17 C8.67 14.69 8.34 12.38 8 10 C7.01 10 6.02 10 5 10 C3.33333333 6.66666667 1.66666667 3.33333333 0 0 Z " fill="#3EBF7D" transform="translate(256,222)"/>
<path d="M0 0 C0.99 0.495 0.99 0.495 2 1 C2 1.66 2 2.32 2 3 C2.66 3.33 3.32 3.66 4 4 C4 4.33 4 4.66 4 5 C4.99 5.33 5.98 5.66 7 6 C7.103125 7.299375 7.20625 8.59875 7.3125 9.9375 C7.88407092 15.77929104 8.92049215 21.51678175 9.98364258 27.28491211 C11 32.81994817 11 32.81994817 11 35 C11.66 35.33 12.32 35.66 13 36 C12.67 38.64 12.34 41.28 12 44 C10.54103247 41.27922272 9.58287408 38.76609031 8.88671875 35.76171875 C8.69295654 34.94840088 8.49919434 34.13508301 8.29956055 33.29711914 C7.99659058 32.00535767 7.99659058 32.00535767 7.6875 30.6875 C5.83321239 22.96936984 3.62655215 15.52542824 0.91796875 8.06640625 C0.05259238 5.17568094 -0.19564206 2.99052858 0 0 Z " fill="#38B482" transform="translate(263,389)"/>
<path d="M0 0 C10.16420454 0.22587121 17.72608569 7.38608952 24.625 14.1875 C25.14602295 14.69837158 25.6670459 15.20924316 26.20385742 15.7355957 C28.73252565 18.32429919 30.62986602 20.30747293 31 24 C30.34 23.67 29.68 23.34 29 23 C29 22.34 29 21.68 29 21 C27.68 20.67 26.36 20.34 25 20 C24.67 18.68 24.34 17.36 24 16 C23.34 16 22.68 16 22 16 C21.34 15.01 20.68 14.02 20 13 C18.7625 12.7834375 18.7625 12.7834375 17.5 12.5625 C15 12 15 12 13.6875 9.9375 C13.460625 9.298125 13.23375 8.65875 13 8 C12.34 8 11.68 8 11 8 C11 7.34 11 6.68 11 6 C8.69 6.66 6.38 7.32 4 8 C3.67 7.01 3.34 6.02 3 5 C3.33 4.34 3.66 3.68 4 3 C2.68 2.67 1.36 2.34 0 2 C0 1.34 0 0.68 0 0 Z " fill="#59CD65" transform="translate(269,33)"/>
<path d="M0 0 C5.01666244 -0.28942283 7.10998339 -0.03907548 11 3 C15.42596103 3.8394064 18.72525847 4.42491384 23 3 C23.04125 3.928125 23.0825 4.85625 23.125 5.8125 C23.69537444 9.26224056 23.69537444 9.26224056 26.9375 10.9375 C27.948125 11.288125 28.95875 11.63875 30 12 C30.66 11.67 31.32 11.34 32 11 C32 11.66 32 12.32 32 13 C33.32 12.67 34.64 12.34 36 12 C35.67 13.98 35.34 15.96 35 18 C34.42636719 17.67128906 33.85273438 17.34257812 33.26171875 17.00390625 C26.995977 13.49547119 20.61467655 10.32117963 14.125 7.25 C13.30475342 6.86142822 12.48450684 6.47285645 11.6394043 6.07250977 C7.79895081 4.26743757 3.96864532 2.51033466 0 1 C0 0.67 0 0.34 0 0 Z " fill="#42BE77" transform="translate(161,293)"/>
<path d="M0 0 C0.66 0.33 1.32 0.66 2 1 C-1.61521104 5.82028139 -4.71134671 8.15979731 -10 11 C-11.90170054 12.47761659 -11.90170054 12.47761659 -13 14 C-13 14.66 -13 15.32 -13 16 C-11.88625 16.2475 -10.7725 16.495 -9.625 16.75 C-6 18 -6 18 -4.5625 20.125 C-4.376875 20.74375 -4.19125 21.3625 -4 22 C-4.66 22.99 -5.32 23.98 -6 25 C-9.39192363 24.40716379 -11.2107757 23.23256811 -13.75 20.9375 C-14.36359375 20.38964844 -14.9771875 19.84179688 -15.609375 19.27734375 C-16.06828125 18.85582031 -16.5271875 18.43429688 -17 18 C-16.91671873 15.31050473 -16.53385747 13.55298529 -14.63720703 11.58837891 C-12.8186196 10.10091115 -10.96149574 8.69581206 -9.0625 7.3125 C-7.78191728 6.3511054 -6.50194307 5.38889958 -5.22265625 4.42578125 C-4.65297119 4.00723877 -4.08328613 3.58869629 -3.49633789 3.1574707 C-1.85007691 1.93451855 -1.85007691 1.93451855 0 0 Z " fill="#3EB8A7" transform="translate(284,190)"/>
<path d="M0 0 C3.25996197 1.26192076 6.47908679 2.61313752 9.6875 4 C10.83798828 4.495 10.83798828 4.495 12.01171875 5 C14 6 14 6 16 8 C18.06874034 8.6425235 18.06874034 8.6425235 20 9 C20.33 8.34 20.66 7.68 21 7 C21.33 7.99 21.66 8.98 22 10 C22.66 10.33 23.32 10.66 24 11 C23.34 11 22.68 11 22 11 C22 11.99 22 12.98 22 14 C22.763125 14.0825 23.52625 14.165 24.3125 14.25 C27.52373261 15.14615794 28.29374499 16.21611025 30 19 C24.97650182 17.52111969 20.65647126 15.37432608 16.125 12.8125 C15.06925781 12.21791992 15.06925781 12.21791992 13.9921875 11.61132812 C8.84425952 8.64173634 4.01793604 5.44087668 0 1 C0 0.67 0 0.34 0 0 Z " fill="#52CF62" transform="translate(88,258)"/>
<path d="M0 0 C1.5 1.25 1.5 1.25 3 3 C3 4.32 3 5.64 3 7 C3.928125 6.9175 4.85625 6.835 5.8125 6.75 C9 7 9 7 10.875 8.8125 C12 11 12 11 12 14 C8.44610174 14.45326983 7.06875563 14.04210069 3.95703125 12.13671875 C2.91933594 11.32847656 1.88164062 10.52023438 0.8125 9.6875 C-0.23292969 8.88699219 -1.27835938 8.08648437 -2.35546875 7.26171875 C-5 5 -5 5 -7 2 C-5.35 1.67 -3.7 1.34 -2 1 C-2 1.66 -2 2.32 -2 3 C-1.34 2.01 -0.68 1.02 0 0 Z " fill="#20BD6A" transform="translate(212,129)"/>
<path d="M0 0 C0.99 0.33 1.98 0.66 3 1 C-4.31221598 10.05210017 -12.69097215 17.44043713 -24 21 C-24.99 20.67 -25.98 20.34 -27 20 C-22.25 17 -22.25 17 -20 17 C-19.67 15.35 -19.34 13.7 -19 12 C-18.46375 12.2475 -17.9275 12.495 -17.375 12.75 C-14.73862464 13.25310352 -14.73862464 13.25310352 -11.75 11.25 C-10.8425 10.5075 -9.935 9.765 -9 9 C-9 8.01 -9 7.02 -9 6 C-7.68 6 -6.36 6 -5 6 C-3.36323743 4.0399719 -3.36323743 4.0399719 -2 2 C-1.34 2 -0.68 2 0 2 C0 1.34 0 0.68 0 0 Z " fill="#22828E" transform="translate(227,437)"/>
<path d="M0 0 C5.52611229 8.28916843 4.31943354 20.62199551 4.26074219 30.32299805 C4.24988695 32.45975292 4.26077827 34.59569008 4.2734375 36.73242188 C4.27211778 38.11198099 4.26955928 39.49153961 4.265625 40.87109375 C4.26336914 42.09755615 4.26111328 43.32401855 4.25878906 44.58764648 C3.99734286 48.03503661 3.23770249 50.78498481 2 54 C1.67 54 1.34 54 1 54 C1.00523682 52.82606689 1.01047363 51.65213379 1.01586914 50.44262695 C1.03416552 46.02743309 1.04552073 41.61224248 1.05493164 37.19702148 C1.05991616 35.29727614 1.06670619 33.39753454 1.07543945 31.49780273 C1.12268245 20.94594013 1.0864079 10.50765878 0 0 Z " fill="#D2F6E7" transform="translate(321,323)"/>
<path d="M0 0 C0.66 0 1.32 0 2 0 C2.268125 0.639375 2.53625 1.27875 2.8125 1.9375 C3.88667752 4.33131686 3.88667752 4.33131686 7 5 C7.0825 5.94875 7.165 6.8975 7.25 7.875 C7.69152475 10.99676653 8.57731896 13.60337936 9.8125 16.5 C11.62679123 20.83303253 13.02051953 25.22097839 14.25 29.75 C14.58515625 30.98234375 14.9203125 32.2146875 15.265625 33.484375 C15.95413015 36.7804103 16.14398867 39.64712095 16 43 C15.67 43 15.34 43 15 43 C14.67128906 41.72769531 14.34257812 40.45539063 14.00390625 39.14453125 C10.61481659 26.4676353 6.18725533 14.63766049 0.73095703 2.70800781 C0 1 0 1 0 0 Z " fill="#349495" transform="translate(324,277)"/>
<path d="M0 0 C2.65271744 2.65271744 2.82672887 4.85536818 3.625 8.5 C3.88539063 9.6653125 4.14578125 10.830625 4.4140625 12.03125 C5 15 5 15 5 17 C5.66 17.33 6.32 17.66 7 18 C7.37890625 20.1171875 7.37890625 20.1171875 7.5625 22.875 C7.63726562 23.85984375 7.71203125 24.8446875 7.7890625 25.859375 C7.9296875 27.953125 8.0703125 30.046875 8.2109375 32.140625 C8.28570312 33.12546875 8.36046875 34.1103125 8.4375 35.125 C8.49808594 36.03507812 8.55867188 36.94515625 8.62109375 37.8828125 C8.74613281 38.58148438 8.87117188 39.28015625 9 40 C9.66 40.33 10.32 40.66 11 41 C10.01 41.66 9.02 42.32 8 43 C6.5951534 38.33516501 5.53131638 33.782912 4.74609375 28.96484375 C4.64031509 28.32309708 4.53453644 27.6813504 4.42555237 27.02015686 C4.09234006 24.99321423 3.76479991 22.96540479 3.4375 20.9375 C3.21457292 19.57480754 2.99126858 18.21217674 2.76757812 16.84960938 C2.35677777 14.34136916 1.9476492 11.83285413 1.54077148 9.32397461 C1.03492096 6.21464957 0.52004466 3.10697891 0 0 Z " fill="#1A8288" transform="translate(337,304)"/>
<path d="M0 0 C-3.76624671 1.25541557 -5.37188934 0.37061958 -9 -1 C-9 -1.66 -9 -2.32 -9 -3 C-11.51974253 -3.65035371 -14.04065935 -4.29537493 -16.5625 -4.9375 C-17.26697266 -5.11990234 -17.97144531 -5.30230469 -18.69726562 -5.49023438 C-27.0155903 -7.59856551 -34.87786552 -8.13489769 -43.4375 -8.0625 C-44.45521484 -8.05798828 -45.47292969 -8.05347656 -46.52148438 -8.04882812 C-49.01438509 -8.03712437 -51.50716074 -8.02072848 -54 -8 C-54 -8.33 -54 -8.66 -54 -9 C-35.09811126 -12.7620264 -16.67078323 -9.47203592 0 0 Z " fill="#56B7B6" transform="translate(394,171)"/>
<path d="M0 0 C0.66 1.32 1.32 2.64 2 4 C-0.90600261 5.25664978 -2.79604584 6 -6 6 C-7.47047336 9.91063224 -7.47047336 9.91063224 -8 14 C-8.66 14 -9.32 14 -10 14 C-10 14.66 -10 15.32 -10 16 C-11.98 16.66 -13.96 17.32 -16 18 C-14.81977743 12.08547554 -11.53566161 6.79230805 -6.6015625 3.3046875 C-4.43197396 2.10696512 -2.26590615 1.00203405 0 0 Z " fill="#78D950" transform="translate(215,40)"/>
<path d="M0 0 C0.66 0 1.32 0 2 0 C2.2475 0.845625 2.495 1.69125 2.75 2.5625 C3.7269512 5.2491158 4.6916808 7.32555582 6.125 9.75 C8 13 8 13 8 15 C8.99 15.33 9.98 15.66 11 16 C10.67 17.65 10.34 19.3 10 21 C10.66 21 11.32 21 12 21 C12 21.66 12 22.32 12 23 C12.99 23.33 13.98 23.66 15 24 C16.1875 27.5625 16.1875 27.5625 17 31 C8.49829994 23.24844994 0.76230823 11.6887262 0 0 Z " fill="#7AD168" transform="translate(69,225)"/>
<path d="M0 0 C8.1644971 3.70944046 20.9765514 12.95310279 25 21 C21.12793601 20.42636089 18.81534937 18.65894107 16 16 C16 15.01 16 14.02 16 13 C14.35 12.67 12.7 12.34 11 12 C11 11.34 11 10.68 11 10 C9.63875 9.62875 9.63875 9.62875 8.25 9.25 C4.83148523 7.93518663 3.25779466 6.84314883 1 4 C0.25 1.75 0.25 1.75 0 0 Z " fill="#7DCD79" transform="translate(198,171)"/>
<path d="M0 0 C2.25 1 2.25 1 4.25 3 C3.21875 3.20625 2.1875 3.4125 1.125 3.625 C-3.41635322 4.8777871 -5.58714029 7.61647566 -8.75 11 C-9.41 11 -10.07 11 -10.75 11 C-10.8325 11.598125 -10.915 12.19625 -11 12.8125 C-11.95455872 15.5966296 -13.32132271 16.43311142 -15.75 18 C-16.41 17.67 -17.07 17.34 -17.75 17 C-4.13790036 0 -4.13790036 0 0 0 Z " fill="#32AC9A" transform="translate(171.75,318)"/>
<path d="M0 0 C0.33 0 0.66 0 1 0 C3.72283209 14.74367197 3.39013181 31.62754465 -1 46 C-1.33 46 -1.66 46 -2 46 C-1.67 42.7 -1.34 39.4 -1 36 C-1.66 35.67 -2.32 35.34 -3 35 C-2.34 35 -1.68 35 -1 35 C-1.185625 34.236875 -1.37125 33.47375 -1.5625 32.6875 C-2 30 -2 30 -1 27 C-0.34 27 0.32 27 1 27 C0.67 18.09 0.34 9.18 0 0 Z " fill="#318F9C" transform="translate(422,211)"/>
<path d="M0 0 C3.84615266 3.56423571 6.62493352 7.21957321 9.1875 11.8125 C9.70957031 12.73409912 9.70957031 12.73409912 10.2421875 13.67431641 C12.67055328 18.08794099 14.20729451 22.04559067 15 27 C14.01 26.34 13.02 25.68 12 25 C12 24.34 12 23.68 12 23 C11.34 23 10.68 23 10 23 C9.690625 21.906875 9.38125 20.81375 9.0625 19.6875 C8.41662103 17.44592006 7.7376883 15.2130649 7 13 C6.34 13 5.68 13 5 13 C4.80664062 12.43410156 4.61328125 11.86820313 4.4140625 11.28515625 C4.15367187 10.55167969 3.89328125 9.81820312 3.625 9.0625 C3.24214844 7.96615234 3.24214844 7.96615234 2.8515625 6.84765625 C2.14728587 4.81317884 2.14728587 4.81317884 0 4 C0 2.68 0 1.36 0 0 Z " fill="#3395A1" transform="translate(407,183)"/>
<path d="M0 0 C0.89879883 -0.01369629 1.79759766 -0.02739258 2.72363281 -0.04150391 C8.32587132 -0.00310398 12.26353664 0.80002302 17.25 3.375 C15.25 4.375 15.25 4.375 12.796875 3.94921875 C8.01655459 3.17531225 3.33450538 3.19076656 -1.5 3.1875 C-2.4384375 3.17525391 -3.376875 3.16300781 -4.34375 3.15039062 C-10.70683655 3.13720743 -16.56478925 3.88768434 -22.75 5.375 C-21.75 3.375 -21.75 3.375 -19.984375 2.5234375 C-13.32340291 0.44973864 -6.92472099 0.05415579 0 0 Z " fill="#E2FADA" transform="translate(250.75,26.625)"/>
<path d="M0 0 C0 0.99 0 1.98 0 3 C-0.8971875 3.061875 -0.8971875 3.061875 -1.8125 3.125 C-4.35100832 3.87739901 -4.35100832 3.87739901 -5.75 7.0625 C-6.1625 8.031875 -6.575 9.00125 -7 10 C-7.99 10 -8.98 10 -10 10 C-10.66 10.66 -11.32 11.32 -12 12 C-12.99 12.33 -13.98 12.66 -15 13 C-16.54166642 14.37485532 -16.54166642 14.37485532 -18 16 C-19 17 -20 18 -21 19 C-21 15 -21 15 -19.609375 13.3671875 C-18.68898438 12.62855469 -18.68898438 12.62855469 -17.75 11.875 C-17.14671875 11.37742188 -16.5434375 10.87984375 -15.921875 10.3671875 C-14 9 -14 9 -11.8828125 7.9765625 C-9.74975727 7.04299599 -9.74975727 7.04299599 -8.125 4.5 C-5.61721085 1.54965983 -3.70104856 0.92526214 0 0 Z " fill="#0FBEA9" transform="translate(292,188)"/>
<path d="M0 0 C2 3 2 3 2.9375 5 C4.04920166 7.09261488 5.29935278 8.37329397 7 10 C8.35439668 12.70879335 8.06501451 15.00933268 8 18 C6.02 16.68 4.04 15.36 2 14 C2.33 13.34 2.66 12.68 3 12 C2.01 12 1.02 12 0 12 C-1.28571429 3.42857143 -1.28571429 3.42857143 0 0 Z " fill="#24BC7C" transform="translate(306,289)"/>
<path d="M0 0 C1.48885773 4.46657319 1.35583786 9.07726509 1.51757812 13.75195312 C1.70205524 17.7512778 2.05621702 20.44060519 4 24 C3.67 24.99 3.34 25.98 3 27 C3.99 27 4.98 27 6 27 C6 29.31 6 31.62 6 34 C-1.73766312 24.48866051 -1.81865095 12.66242088 -1 1 C-0.67 0.67 -0.34 0.34 0 0 Z " fill="#60C866" transform="translate(190,84)"/>
<path d="M0 0 C-0.309375 0.598125 -0.61875 1.19625 -0.9375 1.8125 C-2.10209704 4.08956772 -2.10209704 4.08956772 -3 7 C-4.4540625 6.8453125 -4.4540625 6.8453125 -5.9375 6.6875 C-10.40170049 6.63283632 -13.40015084 8.66550028 -17.08203125 11.00390625 C-17.71496094 11.33261719 -18.34789062 11.66132812 -19 12 C-19.66 11.67 -20.32 11.34 -21 11 C-15.33016639 6.08614421 -7.67678747 0 0 0 Z " fill="#8BD669" transform="translate(229,32)"/>
<path d="M0 0 C4.96225814 3.39284195 7.6733946 7.62925416 10.8125 12.625 C11.56563477 13.78902344 11.56563477 13.78902344 12.33398438 14.9765625 C16 20.72248087 16 20.72248087 16 23 C15.34 23 14.68 23 14 23 C13.67 22.01 13.34 21.02 13 20 C11.35 19.67 9.7 19.34 8 19 C8 16.36 8 13.72 8 11 C6.68 11 5.36 11 4 11 C3.01 11 2.02 11 1 11 C1.33 10.34 1.66 9.68 2 9 C2.66 9 3.32 9 4 9 C4 7.68 4 6.36 4 5 C3.34 5 2.68 5 2 5 C1.34 3.35 0.68 1.7 0 0 Z " fill="#E1F6F6" transform="translate(305,251)"/>
<path d="M0 0 C10.3864793 -0.13430792 20.64305688 0.23785964 31 1 C31 1.33 31 1.66 31 2 C26.38417838 3.15626794 21.91374689 3.18359724 17.1875 3.1875 C16.41857422 3.19974609 15.64964844 3.21199219 14.85742188 3.22460938 C9.57991802 3.23797014 5.07228336 2.46326989 0 1 C0 0.67 0 0.34 0 0 Z " fill="#318991" transform="translate(169,457)"/>
<path d="M0 0 C0.66 0 1.32 0 2 0 C1.56420325 4.17252206 1.12584249 8.30786632 0.375 12.4375 C-0.24699529 14.98268672 -0.24699529 14.98268672 1 17 C0.835 18.093125 0.67 19.18625 0.5 20.3125 C0.03617029 23.73324412 0.20182233 25.71860291 1 29 C1 30.32 1 31.64 1 33 C0.01 32.67 -0.98 32.34 -2 32 C-2.05898369 28.54174064 -2.09392131 25.0836138 -2.125 21.625 C-2.14175781 20.65949219 -2.15851563 19.69398438 -2.17578125 18.69921875 C-2.21924836 12.22261957 -1.53232671 6.293423 0 0 Z " fill="#86D858" transform="translate(70,192)"/>
<path d="M0 0 C1.98 0.66 3.96 1.32 6 2 C6 2.66 6 3.32 6 4 C6.99 4 7.98 4 9 4 C9 4.66 9 5.32 9 6 C10.32 5.67 11.64 5.34 13 5 C13 6.65 13 8.3 13 10 C13.94875 10.103125 14.8975 10.20625 15.875 10.3125 C19 11 19 11 21 14 C12.23669969 11.82471269 5.22145236 7.47094598 0 0 Z " fill="#1D858A" transform="translate(148,443)"/>
<path d="M0 0 C0.94719598 2.55742914 1.13994607 3.65764266 0.08984375 6.2265625 C-1.15387502 9.3915816 -1.60574784 12.32135172 -2.0625 15.6875 C-2.90015601 21.80031201 -2.90015601 21.80031201 -4 24 C-4.2275015 25.87056791 -4.40962811 27.74685958 -4.5625 29.625 C-4.64628906 30.62789062 -4.73007813 31.63078125 -4.81640625 32.6640625 C-4.87699219 33.43492188 -4.93757812 34.20578125 -5 35 C-5.33 35 -5.66 35 -6 35 C-6.46176311 22.63501017 -5.52232906 11.30762616 0 0 Z " fill="#83CD77" transform="translate(194,61)"/>
<path d="M0 0 C6.72918698 3.43936223 12.24900261 8.13297147 18 13 C17.34 13.66 16.68 14.32 16 15 C13.0625 13.6875 13.0625 13.6875 10 12 C9.67 11.01 9.34 10.02 9 9 C6.99983534 7.79117904 6.99983534 7.79117904 5 7 C5 6.34 5 5.68 5 5 C4.01 4.67 3.02 4.34 2 4 C2 3.34 2 2.68 2 2 C1.34 2 0.68 2 0 2 C0 1.34 0 0.68 0 0 Z " fill="#2CA29D" transform="translate(190,329)"/>
<path d="M0 0 C1.67401097 0.64800425 3.33805262 1.32165413 5 2 C5.72445312 2.25652344 6.44890625 2.51304687 7.1953125 2.77734375 C11.47632902 4.42334515 14.25097764 5.66355868 16.5625 9.75 C17.036875 10.8225 17.51125 11.895 18 13 C10.79077257 10.74711643 5.0836271 5.40135379 0 0 Z " fill="#70CB7A" transform="translate(88,258)"/>
<path d="M0 0 C0.66 0.33 1.32 0.66 2 1 C-1.96 3.97 -5.92 6.94 -10 10 C-10.66 9.67 -11.32 9.34 -12 9 C-12 6.36 -12 3.72 -12 1 C-11.67 1 -11.34 1 -11 1 C-10.67 2.98 -10.34 4.96 -10 7 C-10 6.67 -10 6.34 -10 6 C-10 4.33333333 -10 2.66666667 -10 1 C-9.67 1.99 -9.34 2.98 -9 4 C-8.06027344 3.54947266 -8.06027344 3.54947266 -7.1015625 3.08984375 C-6.28429687 2.70957031 -5.46703125 2.32929688 -4.625 1.9375 C-3.81289063 1.55464844 -3.00078125 1.17179687 -2.1640625 0.77734375 C-1.09285156 0.39255859 -1.09285156 0.39255859 0 0 Z " fill="#258690" transform="translate(355,339)"/>
<path d="M0 0 C1 2 1 2 0.375 4.8125 C-1.91969071 10.13201028 -5.825012 13.48243827 -11 16 C-11.66 15.67 -12.32 15.34 -13 15 C-12.48050781 14.50371094 -11.96101563 14.00742187 -11.42578125 13.49609375 C-7.07159457 9.25458473 -3.37180778 5.05771167 0 0 Z " fill="#D6F3E7" transform="translate(303,421)"/>
<path d="M0 0 C1.54571278 2.31856917 2.79618552 4.50638429 4 7 C5.32 7 6.64 7 8 7 C8.33 6.34 8.66 5.68 9 5 C10.32 5.33 11.64 5.66 13 6 C11.73608512 7.00873016 10.46359117 8.00671822 9.1875 9 C8.12595703 9.8353125 8.12595703 9.8353125 7.04296875 10.6875 C5 12 5 12 2 12 C0.70756464 7.8803623 -0.26252625 4.33168317 0 0 Z " fill="#3FB184" transform="translate(275,433)"/>
<path d="M0 0 C1.32 0.33 2.64 0.66 4 1 C4 1.66 4 2.32 4 3 C4.66 3 5.32 3 6 3 C7.05771739 4.63064764 8.05273046 6.30280873 9 8 C10.63473516 11.12474627 10.63473516 11.12474627 13.125 11.6875 C14.053125 11.8421875 14.053125 11.8421875 15 12 C15 14.31 15 16.62 15 19 C11.90514548 16.06438856 9.41197812 12.97094426 6.9375 9.5 C4.65421478 6.30953621 2.36821859 3.12811428 0 0 Z " fill="#31A8A1" transform="translate(293,234)"/>
<path d="M0 0 C0.33 0 0.66 0 1 0 C1.23112945 4.73815377 0.42022127 8.48870889 -1 13 C-2.12439221 17.04761107 -2.33736025 21.07199671 -2.5625 25.25 C-2.60568359 25.99507812 -2.64886719 26.74015625 -2.69335938 27.5078125 C-2.79896725 29.338349 -2.89994201 31.16915176 -3 33 C-3.33 33 -3.66 33 -4 33 C-4.35216235 21.26125484 -3.74668749 11.24006248 0 0 Z " fill="#9BD074" transform="translate(71,185)"/>
<path d="M0 0 C2.475 0.495 2.475 0.495 5 1 C4.67 1.99 4.34 2.98 4 4 C4.36437233 6.23044679 4.36437233 6.23044679 6 8 C9.56206661 8.81870185 9.56206661 8.81870185 13 9 C13 10.65 13 12.3 13 14 C6.81383767 11.14484816 2.55739692 8.53556991 0 2 C0 1.34 0 0.68 0 0 Z " fill="#60CF5E" transform="translate(83,248)"/>
<path d="M0 0 C0 1.66666667 0 3.33333333 0 5 C-0.97839844 4.98259766 -0.97839844 4.98259766 -1.9765625 4.96484375 C-6.7761914 4.91529006 -11.27784685 5.00586249 -16 6 C-13.10600531 3.65788337 -10.32844572 2.13137829 -6.875 0.75 C-6.00617188 0.39421875 -5.13734375 0.0384375 -4.2421875 -0.328125 C-2 -1 -2 -1 0 0 Z " fill="#36BCB0" transform="translate(328,167)"/>
<path d="M0 0 C1.32 0 2.64 0 4 0 C3.814375 1.2684375 3.814375 1.2684375 3.625 2.5625 C4.09999496 6.91662042 5.75045923 8.39331013 8.78515625 11.38671875 C9.18605469 11.91910156 9.58695313 12.45148438 10 13 C9.67 13.99 9.34 14.98 9 16 C0.80812391 6.95527106 0.80812391 6.95527106 -1 3 C-0.67 2.01 -0.34 1.02 0 0 Z " fill="#21898E" transform="translate(138,427)"/>
<path d="M0 0 C2.29688569 2.29688569 2.71851303 3.78928171 3.625 6.875 C3.88539063 7.73867188 4.14578125 8.60234375 4.4140625 9.4921875 C5 12 5 12 5 16 C4.34 16 3.68 16 3 16 C2.67 14.68 2.34 13.36 2 12 C1.01 12.495 1.01 12.495 0 13 C-1.0161692 8.37078475 -0.83796731 4.65537393 0 0 Z " fill="#2C8D94" transform="translate(235,378)"/>
<path d="M0 0 C0.99 0 1.98 0 3 0 C4.53515625 1.93359375 4.53515625 1.93359375 6.0625 4.4375 C7.97424522 7.81592357 7.97424522 7.81592357 11 10 C11.40729228 12.32156597 11.74438677 14.6568787 12 17 C8.67835601 13.9102726 6.23969512 10.59775869 3.75 6.8125 C3.04359375 5.74644531 2.3371875 4.68039062 1.609375 3.58203125 C0 1 0 1 0 0 Z " fill="#35A39E" transform="translate(308,253)"/>
<path d="M0 0 C5.76774721 4.89004655 11.39476999 9.92484204 17 15 C15 16 15 16 13.0625 15.875 C10.15753239 14.6425895 9.54140869 12.69746521 8 10 C6.68036291 8.98199424 5.34990354 7.97751635 4 7 C4 6.34 4 5.68 4 5 C3.01 4.67 2.02 4.34 1 4 C0.3125 1.9375 0.3125 1.9375 0 0 Z " fill="#58C079" transform="translate(239,206)"/>
<path d="M0 0 C2.375 0.25 2.375 0.25 5 1 C6.3125 3.0625 6.3125 3.0625 7 5 C6.01 6.485 6.01 6.485 5 8 C2.13275314 7.42655063 1.1385485 7.1385485 -1 5 C-0.625 2.375 -0.625 2.375 0 0 Z " fill="#12B9A7" transform="translate(273,207)"/>
<path d="M0 0 C0.99 0.33 1.98 0.66 3 1 C3 1.66 3 2.32 3 3 C4.65 3.33 6.3 3.66 8 4 C8 6 8 8 8 10 C8.66 10.66 9.32 11.32 10 12 C9.01 12 8.02 12 7 12 C5.17578125 9.8828125 5.17578125 9.8828125 3.3125 7.125 C2.37857422 5.76761719 2.37857422 5.76761719 1.42578125 4.3828125 C0 2 0 2 0 0 Z " fill="#40BF70" transform="translate(196,118)"/>
<path d="M0 0 C1 3 1 3 0.37915039 4.80932617 C0.03875732 5.46392822 -0.30163574 6.11853027 -0.65234375 6.79296875 C-1.01650391 7.50517578 -1.38066406 8.21738281 -1.75585938 8.95117188 C-2.14580078 9.68916016 -2.53574219 10.42714844 -2.9375 11.1875 C-3.51661133 12.31188477 -3.51661133 12.31188477 -4.10742188 13.45898438 C-5.06271757 15.31060689 -6.03021577 17.15592452 -7 19 C-8.09658936 15.71023192 -7.79953138 14.28696233 -7 11 C-6.34 11 -5.68 11 -5 11 C-4.9175 10.29875 -4.835 9.5975 -4.75 8.875 C-3.82972275 5.34727053 -2.11873023 2.93888386 0 0 Z " fill="#3BB685" transform="translate(315,396)"/>
<path d="M0 0 C0.53625 0.556875 1.0725 1.11375 1.625 1.6875 C5.14969521 5.11944007 9.42408519 6.35825957 14 8 C14 8.66 14 9.32 14 10 C6.55697903 7.60309494 -0.71837152 4.84737559 -8 2 C-7.071875 1.77763672 -7.071875 1.77763672 -6.125 1.55078125 C-3.99068484 1.04743355 -3.99068484 1.04743355 -2 0.1875 C-1.34 0.125625 -0.68 0.06375 0 0 Z " fill="#67BF88" transform="translate(146,283)"/>
<path d="M0 0 C8.59599799 -0.22588024 16.60182604 0.08041738 25 2 C21.72079119 3.95881942 21.23826396 4.05559492 17.25 3.125 C16.1775 2.75375 15.105 2.3825 14 2 C14 2.99 14 3.98 14 5 C13.34 5 12.68 5 12 5 C12 4.34 12 3.68 12 3 C9.47524538 1.73762269 7.68799534 1.90143596 4.875 1.9375 C3.96492188 1.94652344 3.05484375 1.95554688 2.1171875 1.96484375 C1.06917969 1.98224609 1.06917969 1.98224609 0 2 C0 1.34 0 0.68 0 0 Z " fill="#12AFAF" transform="translate(348,162)"/>
<path d="M0 0 C3.93891054 4.37656726 6.95089464 9.47957917 9 15 C8.67 15.99 8.34 16.98 8 18 C7.0234375 16.2421875 6.046875 14.484375 5.0703125 12.7265625 C3.99102726 10.8387386 3.99102726 10.8387386 2 9 C0.07589404 5.90005152 -0.20125603 3.62260852 0 0 Z " fill="#44B786" transform="translate(302,279)"/>
<path d="M0 0 C1.56325305 4.86345392 -0.05356753 8.41639551 -1.8125 13.0625 C-2.12832031 13.91972656 -2.44414062 14.77695312 -2.76953125 15.66015625 C-4.14725524 18.28001869 -5.53014263 19.42074109 -8 21 C-6.27895703 15.5500306 -4.14685459 10.29166111 -2 5 C-1.33253424 3.33365319 -0.66564185 1.66707623 0 0 Z " fill="#CCEAEC" transform="translate(420,257)"/>
<path d="M0 0 C4.44870215 -0.39253254 7.14243493 0.84694043 11 3 C8.3144406 5.6855594 5.62378672 6.06049974 2 7 C2.33 6.01 2.66 5.02 3 4 C2.34 4 1.68 4 1 4 C0.67 2.68 0.34 1.36 0 0 Z " fill="#8DE148" transform="translate(143,145)"/>
<path d="M0 0 C5.40804802 4.49089368 7.75459927 13.44639101 8.9375 20.1875 C8.958125 21.115625 8.97875 22.04375 9 23 C8.34 23.66 7.68 24.32 7 25 C6.87882812 24.26394531 6.75765625 23.52789062 6.6328125 22.76953125 C6.46523438 21.79371094 6.29765625 20.81789063 6.125 19.8125 C5.96257812 18.84957031 5.80015625 17.88664062 5.6328125 16.89453125 C5.08081308 13.98926241 5.08081308 13.98926241 3.9296875 11.32421875 C3 9 3 9 3 6 C2.01 5.67 1.02 5.34 0 5 C0 3.35 0 1.7 0 0 Z " fill="#52B680" transform="translate(300,57)"/>
<path d="M0 0 C5.31027254 1.46032495 9.46330032 3.98320986 14 7 C9.57039376 8.48303997 7.17597188 6.8559875 3 5 C2.01 5.495 2.01 5.495 1 6 C0.67 4.02 0.34 2.04 0 0 Z " fill="#2AA89A" transform="translate(176,321)"/>
<path d="M0 0 C0.66 0.33 1.32 0.66 2 1 C1.45730469 1.845625 0.91460937 2.69125 0.35546875 3.5625 C-3.41912141 9.52048321 -6.87449782 15.2249618 -9 22 C-10.37095624 18.30962722 -9.60010967 16.29116165 -8.0625 12.75 C-7.68222656 11.85796875 -7.30195312 10.9659375 -6.91015625 10.046875 C-6.60980469 9.37140625 -6.30945313 8.6959375 -6 8 C-5.34 8 -4.68 8 -4 8 C-3.71125 7.05125 -3.4225 6.1025 -3.125 5.125 C-2 2 -2 2 0 0 Z " fill="#E9FBD8" transform="translate(79,168)"/>
<path d="M0 0 C1.34144314 4.47147715 0.95116339 8.46945858 0 13 C-1.73531452 16.07623937 -3.01117881 17.00745254 -6 19 C-6 17.68 -6 16.36 -6 15 C-5.01 15 -4.02 15 -3 15 C-2.09275306 10.9821921 -1.6608216 6.98457583 -1.28125 2.890625 C-1 1 -1 1 0 0 Z " fill="#1CAD73" transform="translate(306,97)"/>
<path d="M0 0 C0.66 1.32 1.32 2.64 2 4 C0.33333333 4.66666667 -1.33333333 5.33333333 -3 6 C-4.299375 6.5878125 -4.299375 6.5878125 -5.625 7.1875 C-8 8 -8 8 -11 7 C-8.81482901 4.59424393 -6.74080329 3.20464419 -3.8125 1.8125 C-2.73935547 1.29623047 -2.73935547 1.29623047 -1.64453125 0.76953125 C-1.10183594 0.51558594 -0.55914062 0.26164062 0 0 Z " fill="#85D165" transform="translate(215,40)"/>
<path d="M0 0 C-3.23919511 2.86544183 -5.79161859 3.34536289 -10 4 C-10.33 4.66 -10.66 5.32 -11 6 C-11 5.34 -11 4.68 -11 4 C-11.99 3.67 -12.98 3.34 -14 3 C-12.42274653 2.29866401 -10.83788667 1.614417 -9.25 0.9375 C-7.92742187 0.36322266 -7.92742187 0.36322266 -6.578125 -0.22265625 C-3.84743691 -1.04600008 -2.63098653 -0.9773992 0 0 Z " fill="#97E242" transform="translate(123,146)"/>
<path d="M0 0 C0.33 0.99 0.66 1.98 1 3 C4.63 3.66 8.26 4.32 12 5 C12 5.33 12 5.66 12 6 C10.2507786 6.08142927 8.50045458 6.13938541 6.75 6.1875 C5.77546875 6.22230469 4.8009375 6.25710938 3.796875 6.29296875 C0.58260223 5.95627817 -0.60851244 5.09779611 -3 3 C-4.31836295 2.30419733 -5.64791086 1.62775567 -7 1 C-3.375 -1.125 -3.375 -1.125 0 0 Z " fill="#0A7F8B" transform="translate(168,451)"/>
<path d="M0 0 C2.4375 0.8125 2.4375 0.8125 5 3 C5.76562117 6.65557149 5.93037367 10.27182653 6 14 C5.01 14 4.02 14 3 14 C0.88838269 4.58997722 0.88838269 4.58997722 0 0 Z " fill="#1DB97A" transform="translate(258,374)"/>
<path d="M0 0 C4.17906895 3.55994763 6.68559431 8.08663054 9 13 C9 13.66 9 14.32 9 15 C8.34 15 7.68 15 7 15 C6.34 13.02 5.68 11.04 5 9 C4.34 9 3.68 9 3 9 C0.56839395 5.63316085 0 4.26649636 0 0 Z " fill="#369198" transform="translate(226,363)"/>
<path d="M0 0 C2.21650746 3.3247612 3.12605143 6.50539601 4.125 10.3125 C4.39763672 11.28993164 4.39763672 11.28993164 4.67578125 12.28710938 C5.73997502 16.28383711 6.19206149 19.87067786 6 24 C5.67 24 5.34 24 5 24 C4.15693004 21.12754022 3.32534498 18.2525541 2.5 15.375 C2.26152344 14.56675781 2.02304687 13.75851562 1.77734375 12.92578125 C0.51674061 8.49566164 -0.30141867 4.65691843 0 0 Z " fill="#338D90" transform="translate(334,296)"/>
<path d="M0 0 C3.375 -0.125 3.375 -0.125 7 0 C7.66 0.66 8.32 1.32 9 2 C11.02739952 2.57020611 13.05632289 2.94816408 15.125 3.33984375 C17 4 17 4 19 7 C12.51292846 5.3186083 6.2322365 3.46937673 0 1 C0 0.67 0 0.34 0 0 Z " fill="#6EC683" transform="translate(118,277)"/>
<path d="M0 0 C5.65394631 -0.34615998 9.03006806 0.56574762 14 3 C13.67 3.66 13.34 4.32 13 5 C8.15340923 4.40895235 4.39251833 3.02055843 0 1 C0 0.67 0 0.34 0 0 Z " fill="#36AF7B" transform="translate(221,143)"/>
<path d="M0 0 C-2.88657293 1.44328646 -4.82523651 0.55323327 -8 0 C-10.95475909 -0.2558203 -13.9133399 -0.40939723 -16.875 -0.5625 C-17.65875 -0.60568359 -18.4425 -0.64886719 -19.25 -0.69335938 C-21.16650649 -0.79853351 -23.08323333 -0.89967925 -25 -1 C-25 -1.33 -25 -1.66 -25 -2 C-23.12528812 -2.16987681 -21.25021305 -2.33574776 -19.375 -2.5 C-18.33085937 -2.5928125 -17.28671875 -2.685625 -16.2109375 -2.78125 C-9.69334068 -3.22527119 -5.83184333 -2.7992848 0 0 Z " fill="#D2F4CC" transform="translate(268,30)"/>
<path d="M0 0 C0.99 0.33 1.98 0.66 3 1 C1.51194289 6.80342274 -1.59097555 11.17590879 -5 16 C-6.24546405 13.50907189 -5.7767578 12.58919267 -5 10 C-4.34 10 -3.68 10 -3 10 C-3 9.01 -3 8.02 -3 7 C-2.34 7 -1.68 7 -1 7 C-0.67 4.69 -0.34 2.38 0 0 Z " fill="#328992" transform="translate(236,421)"/>
<path d="M0 0 C0.33 0 0.66 0 1 0 C0.38958946 9.6613255 0.38958946 9.6613255 -3 14 C-3.99 14.495 -3.99 14.495 -5 15 C-4.54705135 13.24859857 -4.08741252 11.49892656 -3.625 9.75 C-3.36976563 8.77546875 -3.11453125 7.8009375 -2.8515625 6.796875 C-2.10401491 4.34162697 -1.22876183 2.24382595 0 0 Z " fill="#34A198" transform="translate(136,363)"/>
<path d="M0 0 C1 2 1 2 0.6875 4.0625 C0 6 0 6 -2 7 C-3.01529541 9.32671865 -4.01488198 11.6603447 -5 14 C-5.66 14.66 -6.32 15.32 -7 16 C-7 11.60714704 -6.18765403 10.05777145 -4.0625 6.3125 C-3.51722656 5.33925781 -2.97195312 4.36601562 -2.41015625 3.36328125 C-1 1 -1 1 0 0 Z " fill="#3AA798" transform="translate(145,347)"/>
<path d="M0 0 C0.66 0.33 1.32 0.66 2 1 C1.67 1.66 1.34 2.32 1 3 C1.99 3 2.98 3 4 3 C4.2475 3.5775 4.495 4.155 4.75 4.75 C6.16683317 7.3002997 7.87627537 9.01785701 10 11 C4.59510481 9.47987323 1.01507372 5.72614782 -3 2 C-2.01 1.34 -1.02 0.68 0 0 Z " fill="#45B47C" transform="translate(208,130)"/>
<path d="M0 0 C4.52615993 3.67832017 8.39424999 7.41086363 12 12 C11.67 12.66 11.34 13.32 11 14 C10.67 13.01 10.34 12.02 10 11 C7.98491642 10.26676204 7.98491642 10.26676204 6 10 C5.67 8.68 5.34 7.36 5 6 C4.34 6 3.68 6 3 6 C0 2.53846154 0 2.53846154 0 0 Z " fill="#5ABD7B" transform="translate(288,43)"/>
<path d="M0 0 C0.33 1.32 0.66 2.64 1 4 C1.33 4.66 1.66 5.32 2 6 C1.01 6 0.02 6 -1 6 C-1.66 7.32 -2.32 8.64 -3 10 C-4.32 9.34 -5.64 8.68 -7 8 C-4.69 5.36 -2.38 2.72 0 0 Z " fill="#E0EFF2" transform="translate(230,437)"/>
<path d="M0 0 C6.57142857 4 6.57142857 4 8 8 C6.35 8.33 4.7 8.66 3 9 C3 8.34 3 7.68 3 7 C2.01 6.67 1.02 6.34 0 6 C0 4.02 0 2.04 0 0 Z " fill="#1F9CA0" transform="translate(208,343)"/>
<path d="M0 0 C5.4336441 -0.82685888 7.93120477 0.31418389 12.4375 3.5 C13.97010126 4.65116399 15.49501007 5.81296569 17 7 C13.14750338 7 10.26391667 5.53704012 6.8125 4 C6.15830078 3.71382813 5.50410156 3.42765625 4.83007812 3.1328125 C3.21790725 2.42675226 1.60866281 1.71401678 0 1 C0 0.67 0 0.34 0 0 Z " fill="#5EBE86" transform="translate(161,293)"/>
<path d="M0 0 C1.65 0 3.3 0 5 0 C6.4606285 2.64738916 7 3.89448334 7 7 C7.66 7 8.32 7 9 7 C8.67 7.99 8.34 8.98 8 10 C6.66370254 8.52351062 5.33103329 7.0437367 4 5.5625 C3.2575 4.73878906 2.515 3.91507813 1.75 3.06640625 C0 1 0 1 0 0 Z " fill="#2CAEA4" transform="translate(281,220)"/>
<path d="M0 0 C0.66 0.33 1.32 0.66 2 1 C-1.73572939 5.82029598 -1.73572939 5.82029598 -5.3359375 6.33203125 C-7.5758033 6.31436669 -9.77120799 6.21850902 -12 6 C-9.48617788 4.32411859 -7.17052712 3.05969689 -4.4375 1.8125 C-3.65246094 1.44769531 -2.86742187 1.08289063 -2.05859375 0.70703125 C-1.37925781 0.47371094 -0.69992187 0.24039063 0 0 Z " fill="#D7F5EA" transform="translate(278,142)"/>
<path d="M0 0 C2.0625 1.75 2.0625 1.75 4 4 C3.75 6.25 3.75 6.25 3 8 C3.99 8 4.98 8 6 8 C6 10.31 6 12.62 6 15 C2.35219334 10.8310781 0 5.55196264 0 0 Z " fill="#57BC71" transform="translate(190,103)"/>
<path d="M0 0 C0.33 3.3 0.66 6.6 1 10 C0.01 10 -0.98 10 -2 10 C-2.33 9.01 -2.66 8.02 -3 7 C-3.66 7.99 -4.32 8.98 -5 10 C-5.49076517 4.60158311 -5.49076517 4.60158311 -3.0625 1.625 C-1 0 -1 0 0 0 Z " fill="#09A395" transform="translate(142,358)"/>
<path d="M0 0 C3.27275026 0 5.846632 0.29925156 9 1 C8.67 1.598125 8.34 2.19625 8 2.8125 C6.79212012 5.05386471 6.79212012 5.05386471 7 8 C5.8274869 7.04882866 4.66212985 6.08882991 3.5 5.125 C2.8503125 4.59132813 2.200625 4.05765625 1.53125 3.5078125 C1.0259375 3.01023437 0.520625 2.51265625 0 2 C0 1.34 0 0.68 0 0 Z " fill="#1EBC74" transform="translate(231,336)"/>
<path d="M0 0 C2.52116812 4.77639024 4.30454365 9.56365084 3.625 15 C3.41875 15.66 3.2125 16.32 3 17 C0.15385976 14.15385976 0.54420924 11.19630858 0.375 7.375 C0.33632813 6.66859375 0.29765625 5.9621875 0.2578125 5.234375 C0.16352276 3.49001476 0.08067109 1.74504309 0 0 Z " fill="#50BE91" transform="translate(318,316)"/>
<path d="M0 0 C0.66 0.99 1.32 1.98 2 3 C-0.31 5.64 -2.62 8.28 -5 11 C-5.99 10.67 -6.98 10.34 -8 10 C-5.36 6.7 -2.72 3.4 0 0 Z " fill="#DEF6ED" transform="translate(300,121)"/>
<path d="M0 0 C0.66 0 1.32 0 2 0 C5 5.75 5 5.75 5 8 C3.35 8.33 1.7 8.66 0 9 C0 6.03 0 3.06 0 0 Z " fill="#E3F1F3" transform="translate(132,422)"/>
<path d="M0 0 C0.99 0.33 1.98 0.66 3 1 C3 3.64 3 6.28 3 9 C2.34 9 1.68 9 1 9 C0.67 9.99 0.34 10.98 0 12 C-0.33 12 -0.66 12 -1 12 C-0.67 8.04 -0.34 4.08 0 0 Z " fill="#1DBA7A" transform="translate(314,387)"/>
<path d="M0 0 C0.66 0 1.32 0 2 0 C2 0.66 2 1.32 2 2 C2.66 2 3.32 2 4 2 C4.70133599 3.57725347 5.385583 5.16211333 6.0625 6.75 C6.44535156 7.63171875 6.82820313 8.5134375 7.22265625 9.421875 C8 12 8 12 7 16 C4.69 10.72 2.38 5.44 0 0 Z " fill="#46B386" transform="translate(253,369)"/>
<path d="M0 0 C0.33 0 0.66 0 1 0 C1.24858198 2.77034137 1.47452879 5.53939069 1.6875 8.3125 C1.76033203 9.09818359 1.83316406 9.88386719 1.90820312 10.69335938 C1.96298828 11.45068359 2.01777344 12.20800781 2.07421875 12.98828125 C2.13182373 13.68477783 2.18942871 14.38127441 2.2487793 15.09887695 C2 17 2 17 -1 20 C-0.67 13.4 -0.34 6.8 0 0 Z " fill="#C3F2DF" transform="translate(309,82)"/>
<path d="M0 0 C2.04136395 -0.05451714 4.08315856 -0.09302485 6.125 -0.125 C7.83042969 -0.15980469 7.83042969 -0.15980469 9.5703125 -0.1953125 C13.05757767 0.00327891 15.7553862 0.7475199 19 2 C19 2.33 19 2.66 19 3 C6.03507803 3.22745477 6.03507803 3.22745477 0 0 Z " fill="#73CC6C" transform="translate(253,30)"/>
<path d="M0 0 C0.598125 0.350625 1.19625 0.70125 1.8125 1.0625 C1.8125 4.0625 1.8125 4.0625 0.8125 6.0625 C-4.0625 3.4375 -4.0625 3.4375 -5.1875 0.0625 C-2.1875 -0.9375 -2.1875 -0.9375 0 0 Z " fill="#1DBE75" transform="translate(230.1875,328.9375)"/>
<path d="M0 0 C0.556875 0.763125 1.11375 1.52625 1.6875 2.3125 C3.96679369 4.96140888 5.93599872 6.38288822 9 8 C8.67 9.32 8.34 10.64 8 12 C4.7 9.03 1.4 6.06 -2 3 C-1.34 2.67 -0.68 2.34 0 2 C0 1.34 0 0.68 0 0 Z " fill="#43B784" transform="translate(222,326)"/>
<path d="M0 0 C0 0.99 0 1.98 0 3 C-0.66 3 -1.32 3 -2 3 C-2 4.65 -2 6.3 -2 8 C-2.66 8 -3.32 8 -4 8 C-6 5 -6 5 -6 1 C-3.92446352 0.4465236 -2.15634036 0 0 0 Z " fill="#1FC073" transform="translate(224,320)"/>
<path d="M0 0 C4.13937592 3.30015998 7.58662205 6.17324411 10 11 C7.6875 10.875 7.6875 10.875 5 10 C3.3125 7.1875 3.3125 7.1875 2 4 C1.34189997 2.66241764 0.67701784 1.32810733 0 0 Z " fill="#55BE80" transform="translate(256,222)"/>
<path d="M0 0 C0.99 0.495 0.99 0.495 2 1 C2 1.66 2 2.32 2 3 C2.66 3.33 3.32 3.66 4 4 C4 7.33333333 4 10.66666667 4 14 C0.99778216 9.49667324 -0.31896025 5.42232421 0 0 Z " fill="#38B584" transform="translate(263,389)"/>
<path d="M0 0 C2.64 0.33 5.28 0.66 8 1 C8.66 3.64 9.32 6.28 10 9 C8.8944811 8.06409496 7.79064547 7.12620142 6.6875 6.1875 C6.07261719 5.66542969 5.45773438 5.14335937 4.82421875 4.60546875 C3.14575321 3.12827531 1.56117966 1.59960869 0 0 Z " fill="#DAF3F3" transform="translate(203,338)"/>
<path d="M0 0 C1.5 1.3125 1.5 1.3125 3 3 C3 3.99 3 4.98 3 6 C1.35 6 -0.3 6 -2 6 C-2.66 4.68 -3.32 3.36 -4 2 C-2.68 1.34 -1.36 0.68 0 0 Z " fill="#27B371" transform="translate(221,137)"/>
<path d="M0 0 C2.91517292 1.07401108 4.77810176 1.77810176 7 4 C6.625 6.125 6.625 6.125 6 8 C4.68 7.34 3.36 6.68 2 6 C2 4.68 2 3.36 2 2 C1.34 2 0.68 2 0 2 C0 1.34 0 0.68 0 0 Z " fill="#5AC66E" transform="translate(281,38)"/>
<path d="M0 0 C0.99 0.33 1.98 0.66 3 1 C3.33 3.64 3.66 6.28 4 9 C3.01 9 2.02 9 1 9 C-0.4783226 6.04335481 -0.06032783 3.25770263 0 0 Z " fill="#12BB74" transform="translate(267,394)"/>
<path d="M0 0 C4.23429756 1.31061591 8.07407404 2.94356259 12 5 C8.67803635 6.10732122 7.31749961 5.85064093 4 5 C3.34 4.67 2.68 4.34 2 4 C2 3.34 2 2.68 2 2 C1.34 2 0.68 2 0 2 C0 1.34 0 0.68 0 0 Z " fill="#DFF7E1" transform="translate(106,272)"/>
<path d="M0 0 C0.66 0 1.32 0 2 0 C2 0.66 2 1.32 2 2 C2.66 2 3.32 2 4 2 C4 2.66 4 3.32 4 4 C4.99 4.33 5.98 4.66 7 5 C8.1875 8.5625 8.1875 8.5625 9 12 C5.74483572 8.83525695 2.67991207 5.67247209 0 2 C0 1.34 0 0.68 0 0 Z " fill="#81CC7B" transform="translate(77,244)"/>
<path d="M0 0 C0.66 0.33 1.32 0.66 2 1 C1.34 1.66 0.68 2.32 0 3 C0.33 3.66 0.66 4.32 1 5 C-0.93254772 7.0245738 -2.63158688 8.42105792 -5 10 C-4.4454626 6.67277559 -3.75986957 3.8986087 -2 1 C-1.34 0.67 -0.68 0.34 0 0 Z " fill="#0BAA95" transform="translate(156,335)"/>
<path d="M0 0 C0.99 0.33 1.98 0.66 3 1 C2.67 1.66 2.34 2.32 2 3 C2.66 3 3.32 3 4 3 C3.34 4.32 2.68 5.64 2 7 C0.35 5.68 -1.3 4.36 -3 3 C-2.01 2.01 -1.02 1.02 0 0 Z " fill="#E8F4F5" transform="translate(378,320)"/>
<path d="M0 0 C0.66 0 1.32 0 2 0 C2 0.66 2 1.32 2 2 C2.66 2 3.32 2 4 2 C4.73080266 3.97746603 5.39421747 5.98072489 6 8 C5.67 8.66 5.34 9.32 5 10 C4.01 9.67 3.02 9.34 2 9 C1.855625 8.071875 1.71125 7.14375 1.5625 6.1875 C1.07899889 2.99274889 1.07899889 2.99274889 0 0 Z " fill="#1DC175" transform="translate(287,261)"/>
<path d="M0 0 C1.32 0.33 2.64 0.66 4 1 C4 1.66 4 2.32 4 3 C4.9590625 3.3403125 4.9590625 3.3403125 5.9375 3.6875 C8 5 8 5 8.75 7.625 C8.87375 8.800625 8.87375 8.800625 9 10 C5.73991357 6.83047153 2.77762123 3.60062011 0 0 Z " fill="#DEF8E7" transform="translate(258,223)"/>
<path d="M0 0 C-0.7115625 0.928125 -0.7115625 0.928125 -1.4375 1.875 C-3.02417441 3.90705546 -3.02417441 3.90705546 -4 6 C-5.32 5.67 -6.64 5.34 -8 5 C-7.8125 3.125 -7.8125 3.125 -7 1 C-2.66666667 -1.33333333 -2.66666667 -1.33333333 0 0 Z " fill="#96E53D" transform="translate(105,153)"/>
<path d="M0 0 C3.56720996 2.67540747 6.41126424 5.35659412 9 9 C9 9.66 9 10.32 9 11 C8.34 11 7.68 11 7 11 C7 10.34 7 9.68 7 9 C6.34 9 5.68 9 5 9 C4.731875 8.195625 4.46375 7.39125 4.1875 6.5625 C3.795625 5.716875 3.40375 4.87125 3 4 C2.01 3.67 1.02 3.34 0 3 C0 2.01 0 1.02 0 0 Z " fill="#309395" transform="translate(216,351)"/>
<path d="M0 0 C0.66 0.33 1.32 0.66 2 1 C-0.31 4.96 -2.62 8.92 -5 13 C-5.33 12.34 -5.66 11.68 -6 11 C-4.92770717 7.86560559 -3.52342979 4.93804317 -2 2 C-1.34 2 -0.68 2 0 2 C0 1.34 0 0.68 0 0 Z " fill="#D9F7F3" transform="translate(143,347)"/>
<path d="M0 0 C3.23861303 1.44424635 5.61969163 3.25772247 8.25 5.625 C8.95640625 6.25664062 9.6628125 6.88828125 10.390625 7.5390625 C10.92171875 8.02117187 11.4528125 8.50328125 12 9 C7.72159739 9 6.17965543 6.71595568 3 4 C2.01 3.67 1.02 3.34 0 3 C0 2.01 0 1.02 0 0 Z " fill="#6EC67D" transform="translate(224,193)"/>
<path d="M0 0 C-4.86628419 2.62030687 -9.4185702 4.3283194 -15 4 C-10.27844707 -0.02206361 -6.0476984 -0.14064415 0 0 Z " fill="#17BAA9" transform="translate(339,165)"/>
<path d="M0 0 C4.75286041 4.29290618 4.75286041 4.29290618 5 8 C4.34 8.66 3.68 9.32 3 10 C3 9.34 3 8.68 3 8 C2.34 8 1.68 8 1 8 C-0.35439668 5.29120665 -0.06501451 2.99066732 0 0 Z " fill="#2BB57C" transform="translate(267,401)"/>
<path d="M0 0 C4.4571874 0.26218749 6.51522698 0.57711289 9.9375 3.5625 C10.618125 4.366875 11.29875 5.17125 12 6 C7.76570244 4.68938409 3.92592596 3.05643741 0 1 C0 0.67 0 0.34 0 0 Z " fill="#68C577" transform="translate(106,271)"/>
<path d="M0 0 C2.37948772 0.17625835 3.70225849 0.69719773 5.37890625 2.40234375 C6.62115486 3.90649092 7.81376056 5.45129851 9 7 C5.13066838 6.42676569 2.84777943 4.61046448 0 2 C0 1.34 0 0.68 0 0 Z " fill="#6BC875" transform="translate(214,185)"/>
<path d="M0 0 C2.9375 1.3125 2.9375 1.3125 6 3 C6.33 3.99 6.66 4.98 7 6 C3.86650268 7.04449911 3.01031744 6.93423645 0 6 C0 4.02 0 2.04 0 0 Z " fill="#6CD858" transform="translate(192,168)"/>
<path d="M0 0 C4.85963179 0.60745397 8.7405518 2.72758967 13 5 C9.23375329 6.25541557 7.62811066 5.37061958 4 4 C4 3.34 4 2.68 4 2 C2.68 1.34 1.36 0.68 0 0 Z " fill="#35A4A9" transform="translate(381,166)"/>
<path d="M0 0 C0.66 0 1.32 0 2 0 C1.67 1.32 1.34 2.64 1 4 C0.34 4 -0.32 4 -1 4 C-1 4.66 -1 5.32 -1 6 C-2.65 6.66 -4.3 7.32 -6 8 C-6 7.34 -6 6.68 -6 6 C-5.34 6 -4.68 6 -4 6 C-3.71125 5.38125 -3.4225 4.7625 -3.125 4.125 C-2 2 -2 2 0 0 Z " fill="#ADDF6D" transform="translate(88,160)"/>
<path d="M0 0 C-0.38597015 2.79828356 -0.80136573 3.8205884 -2.9375 5.75 C-5 7 -5 7 -7 7 C-6.61402985 4.20171644 -6.19863427 3.1794116 -4.0625 1.25 C-2 0 -2 0 0 0 Z " fill="#9EDE50" transform="translate(97,155)"/>
<path d="M0 0 C9.59453303 2.70615034 9.59453303 2.70615034 13 7 C3.40546697 4.29384966 3.40546697 4.29384966 0 0 Z " fill="#3A8A8E" transform="translate(156,450)"/>
<path d="M0 0 C0.66 0.66 1.32 1.32 2 2 C-2.30769231 6.92307692 -2.30769231 6.92307692 -5.8125 7.3125 C-6.8953125 7.1578125 -6.8953125 7.1578125 -8 7 C-5.4837822 4.39391727 -2.94865641 2.10618315 0 0 Z " fill="#DEF3F5" transform="translate(353,342)"/>
<path d="M0 0 C0.33 0.99 0.66 1.98 1 3 C0.00390625 4.82421875 0.00390625 4.82421875 -1.4375 6.6875 C-1.91058594 7.31011719 -2.38367188 7.93273437 -2.87109375 8.57421875 C-3.24363281 9.04472656 -3.61617188 9.51523437 -4 10 C-4.99 9.34 -5.98 8.68 -7 8 C-4.69 5.36 -2.38 2.72 0 0 Z " fill="#DAEFF3" transform="translate(391,306)"/>
<path d="M0 0 C1.1484375 1.734375 1.1484375 1.734375 2 4 C1.1015625 6.140625 1.1015625 6.140625 -0.375 8.25 C-0.85710937 8.95640625 -1.33921875 9.6628125 -1.8359375 10.390625 C-2.22007812 10.92171875 -2.60421875 11.4528125 -3 12 C-3.93423645 8.98968256 -4.04449911 8.13349732 -3 5 C-2.34 4.67 -1.68 4.34 -1 4 C-0.34786708 1.97536745 -0.34786708 1.97536745 0 0 Z " fill="#71D455" transform="translate(196,62)"/>
<path d="M0 0 C0.66 0 1.32 0 2 0 C2.33 2.31 2.66 4.62 3 7 C1.35 6.67 -0.3 6.34 -2 6 C-1.125 1.125 -1.125 1.125 0 0 Z " fill="#29C070" transform="translate(198,305)"/>
<path d="M0 0 C0.33 0.66 0.66 1.32 1 2 C2.32 1.67 3.64 1.34 5 1 C4.67 2.98 4.34 4.96 4 7 C2.0625 6.1875 2.0625 6.1875 0 5 C-0.33 4.01 -0.66 3.02 -1 2 C-0.67 1.34 -0.34 0.68 0 0 Z " fill="#3FBF7C" transform="translate(192,304)"/>
<path d="M0 0 C0.66 0.99 1.32 1.98 2 3 C1.38125 3.7425 0.7625 4.485 0.125 5.25 C-1.60437281 7.48801188 -2.86106661 9.43739987 -4 12 C-4.66 12 -5.32 12 -6 12 C-4.43358249 7.69235185 -2.31663844 3.93828536 0 0 Z " fill="#D2EDF0" transform="translate(411,278)"/>
<path d="M0 0 C0.66 0.33 1.32 0.66 2 1 C-1.17320782 4.53586014 -3.16743695 6.58578031 -8 7 C-5.4837822 4.39391727 -2.94865641 2.10618315 0 0 Z " fill="#41BBA8" transform="translate(296,181)"/>
<path d="M0 0 C-1.98 1.32 -3.96 2.64 -6 4 C-7.32 3.34 -8.64 2.68 -10 2 C-3.75 -1.125 -3.75 -1.125 0 0 Z " fill="#10BEAF" transform="translate(322,172)"/>
<path d="M0 0 C0.99 0.33 1.98 0.66 3 1 C3 1.99 3 2.98 3 4 C2.34 4 1.68 4 1 4 C0.67 5.32 0.34 6.64 0 8 C-0.66 7.67 -1.32 7.34 -2 7 C-1.34 4.69 -0.68 2.38 0 0 Z " fill="#0CB173" transform="translate(297,116)"/>
<path d="M0 0 C1 2 1 2 0.0625 5.125 C-0.288125 6.07375 -0.63875 7.0225 -1 8 C-2.65 8.33 -4.3 8.66 -6 9 C-4.02 6.03 -2.04 3.06 0 0 Z " fill="#C9F0E0" transform="translate(303,421)"/>
<path d="M0 0 C1.485 0.99 1.485 0.99 3 2 C3.1875 4.625 3.1875 4.625 3 7 C1.68 7 0.36 7 -1 7 C-0.67 4.69 -0.34 2.38 0 0 Z " fill="#13BD7B" transform="translate(297,419)"/>
<path d="M0 0 C0.6875 1.8125 0.6875 1.8125 1 4 C-0.64504011 6.46756016 -1.80299352 6.94960299 -4.6875 7.6875 C-5.8321875 7.8421875 -5.8321875 7.8421875 -7 8 C-7 7.34 -7 6.68 -7 6 C-6.01 6 -5.02 6 -4 6 C-4 5.34 -4 4.68 -4 4 C-2.68 3.67 -1.36 3.34 0 3 C0 2.01 0 1.02 0 0 Z " fill="#16848C" transform="translate(360,332)"/>
<path d="M0 0 C0.33 0.66 0.66 1.32 1 2 C-1.35380297 5.92300495 -3.64464931 6.83857315 -8 8 C-5.33333333 5.33333333 -2.66666667 2.66666667 0 0 Z " fill="#DBF1F7" transform="translate(374,324)"/>
<path d="M0 0 C-3.79541663 2.21399303 -7.75629421 3.00980198 -12 4 C-12 3.34 -12 2.68 -12 2 C-8.09971775 -0.60018816 -4.52565431 -0.15085514 0 0 Z " fill="#DCF9FA" transform="translate(336,163)"/>
<path d="M0 0 C0.66 0 1.32 0 2 0 C2.25 7.625 2.25 7.625 0 11 C-0.84098656 6.98195309 -1.05404945 3.98196457 0 0 Z " fill="#1EB870" transform="translate(306,82)"/>
<path d="M0 0 C3.00617269 3.00617269 2.59585316 5.82381598 3 10 C2.01 9.34 1.02 8.68 0 8 C-0.40843923 5.28796348 -0.13336867 2.7562858 0 0 Z " fill="#D2F4E5" transform="translate(267,407)"/>
<path d="M0 0 C0 3.10551666 -0.5393715 4.35261084 -2 7 C-2.66 7 -3.32 7 -4 7 C-4.33 7.99 -4.66 8.98 -5 10 C-5.66 9.67 -6.32 9.34 -7 9 C-4.69 6.03 -2.38 3.06 0 0 Z " fill="#D2EFF3" transform="translate(402,293)"/>
<path d="M0 0 C0.66 0 1.32 0 2 0 C2.268125 0.639375 2.53625 1.27875 2.8125 1.9375 C3.88667752 4.33131686 3.88667752 4.33131686 7 5 C7 5.99 7 6.98 7 8 C4.625 7.375 4.625 7.375 2 6 C0.6875 2.875 0.6875 2.875 0 0 Z " fill="#1C9592" transform="translate(324,277)"/>
<path d="M0 0 C1.9375 0.75 1.9375 0.75 4 2 C4.75 4.125 4.75 4.125 5 6 C4.01 6 3.02 6 2 6 C1.34 4.02 0.68 2.04 0 0 Z " fill="#78D06D" transform="translate(198,171)"/>
<path d="M0 0 C0.99 0 1.98 0 3 0 C2.34 1.32 1.68 2.64 1 4 C0.34 4 -0.32 4 -1 4 C-1.33 4.99 -1.66 5.98 -2 7 C-2.33 5.68 -2.66 4.36 -3 3 C-2.01 2.67 -1.02 2.34 0 2 C0 1.34 0 0.68 0 0 Z " fill="#96E63B" transform="translate(87,164)"/>
<path d="M0 0 C-3.63 1.32 -7.26 2.64 -11 4 C-11 3.34 -11 2.68 -11 2 C-7.06425135 -0.62383243 -4.54354105 -1.51451368 0 0 Z " fill="#33A67A" transform="translate(276,144)"/>
<path d="M0 0 C3.875 1.75 3.875 1.75 5 4 C4.34 4 3.68 4 3 4 C3 4.66 3 5.32 3 6 C1.35 6.33 -0.3 6.66 -2 7 C-1.67 6.34 -1.34 5.68 -1 5 C-0.34 5 0.32 5 1 5 C0.67 3.35 0.34 1.7 0 0 Z " fill="#0EAD72" transform="translate(273,137)"/>
<path d="M0 0 C1.0326802 2.78823655 1.04509293 3.8677274 0.0625 6.75 C-0.288125 7.4925 -0.63875 8.235 -1 9 C-1.33 9 -1.66 9 -2 9 C-2.125 5.625 -2.125 5.625 -2 2 C-1.34 1.34 -0.68 0.68 0 0 Z " fill="#20808D" transform="translate(239,414)"/>
<path d="M0 0 C2.64 1.98 5.28 3.96 8 6 C7.34 6.66 6.68 7.32 6 8 C5.34 6.68 4.68 5.36 4 4 C3.01 4 2.02 4 1 4 C0.67 2.68 0.34 1.36 0 0 Z " fill="#D9F7E7" transform="translate(211,321)"/>
<path d="M0 0 C0.66 1.32 1.32 2.64 2 4 C-5.75 3.25 -5.75 3.25 -8 1 C-6.865625 1.020625 -5.73125 1.04125 -4.5625 1.0625 C-1.18424326 1.41577477 -1.18424326 1.41577477 0 0 Z " fill="#5BC27C" transform="translate(146,283)"/>
<path d="M0 0 C0.99 0.33 1.98 0.66 3 1 C3.33 3.31 3.66 5.62 4 8 C2 6.25 2 6.25 0 4 C0 2.68 0 1.36 0 0 Z " fill="#299C97" transform="translate(316,262)"/>
<path d="M0 0 C2.5 2.3125 2.5 2.3125 5 5 C5 5.99 5 6.98 5 8 C4.01 7.34 3.02 6.68 2 6 C2 5.34 2 4.68 2 4 C1.01 4 0.02 4 -1 4 C-0.67 2.68 -0.34 1.36 0 0 Z " fill="#4BBC87" transform="translate(287,257)"/>
<path d="M0 0 C2.31 0.66 4.62 1.32 7 2 C6.34 3.32 5.68 4.64 5 6 C3.31237149 4.3545622 1.6459651 2.68711423 0 1 C0 0.67 0 0.34 0 0 Z " fill="#E5F7ED" transform="translate(281,248)"/>
<path d="M0 0 C1.32 0.33 2.64 0.66 4 1 C4.12375 1.61875 4.2475 2.2375 4.375 2.875 C4.87197356 5.19120832 4.87197356 5.19120832 7 7 C6.01 7 5.02 7 4 7 C0 2.65714286 0 2.65714286 0 0 Z " fill="#52B87C" transform="translate(199,123)"/>
<path d="M0 0 C0.66 1.32 1.32 2.64 2 4 C0.35 4.66 -1.3 5.32 -3 6 C-3 3 -3 3 -1.5 1.3125 C-0.7575 0.6628125 -0.7575 0.6628125 0 0 Z " fill="#78DD4C" transform="translate(215,40)"/>
<path d="M0 0 C1.125 1.5625 1.125 1.5625 2 4 C1.125 7.75 1.125 7.75 0 11 C-0.33 11 -0.66 11 -1 11 C-1.02688151 9.35425434 -1.04634123 7.70838587 -1.0625 6.0625 C-1.07410156 5.14597656 -1.08570313 4.22945313 -1.09765625 3.28515625 C-1 1 -1 1 0 0 Z " fill="#139790" transform="translate(132,377)"/>
<path d="M0 0 C2.72426311 2.35277269 3.8141763 4.62496331 5 8 C4.01 8.495 4.01 8.495 3 9 C0 3.375 0 3.375 0 0 Z " fill="#DAF7E9" transform="translate(250,365)"/>
<path d="M0 0 C0.33 0 0.66 0 1 0 C1.33 1.98 1.66 3.96 2 6 C3.32 5.67 4.64 5.34 6 5 C4.68 6.32 3.36 7.64 2 9 C1.34 8.67 0.68 8.34 0 8 C0 5.36 0 2.72 0 0 Z " fill="#508A92" transform="translate(343,340)"/>
<path d="M0 0 C0.99 0 1.98 0 3 0 C3 0.66 3 1.32 3 2 C3.99 2 4.98 2 6 2 C6.33 3.65 6.66 5.3 7 7 C5.83040013 6.02433888 4.66438823 5.044375 3.5 4.0625 C2.8503125 3.51722656 2.200625 2.97195312 1.53125 2.41015625 C1.0259375 1.94480469 0.520625 1.47945312 0 1 C0 0.67 0 0.34 0 0 Z " fill="#CBF0D3" transform="translate(243,209)"/>
<path d="M0 0 C3.79588866 0.54226981 5.47211993 2.20127563 8 5 C6.02 5 4.04 5 2 5 C1.34 3.35 0.68 1.7 0 0 Z " fill="#60D15E" transform="translate(206,180)"/>
<path d="M0 0 C1.98 1.65 3.96 3.3 6 5 C5.67 5.66 5.34 6.32 5 7 C2 6 2 6 0 4 C0 2.68 0 1.36 0 0 Z " fill="#2DBA68" transform="translate(203,124)"/>
<path d="M0 0 C0.99 0.33 1.98 0.66 3 1 C0.03 3.475 0.03 3.475 -3 6 C-2.625 3.5625 -2.625 3.5625 -2 1 C-1.34 0.67 -0.68 0.34 0 0 Z " fill="#E6FADE" transform="translate(205,43)"/>
<path d="M0 0 C2.31 0 4.62 0 7 0 C7.33 1.65 7.66 3.3 8 5 C5.36 3.68 2.72 2.36 0 1 C0 0.67 0 0.34 0 0 Z " fill="#E2F6E1" transform="translate(274,33)"/>
</svg>
